<svg width="24" height="25" viewBox="0 0 24 25" fill="none" xmlns="http://www.w3.org/2000/svg">
<path d="M9.3942 18.515H14.6056M17.3485 21.8064H6.65134C6.04541 21.8064 5.5542 21.3152 5.5542 20.7093V17.7784C5.5542 17.5442 5.62915 17.3162 5.76808 17.1276L8.91464 12.8573C9.19982 12.4702 9.19982 11.9426 8.91464 11.5556L5.76808 7.28528C5.62915 7.09673 5.5542 6.86867 5.5542 6.63446V3.70359C5.5542 3.09765 6.04541 2.60645 6.65134 2.60645H17.0742C17.6801 2.60645 18.1713 3.09765 18.1713 3.70359V6.6556C18.1713 6.87671 18.1045 7.09266 17.9797 7.27514L15.0456 11.5634C14.7821 11.9485 14.7911 12.4581 15.0678 12.8337L18.2317 17.1276C18.3707 17.3162 18.4456 17.5442 18.4456 17.7784V20.7093C18.4456 21.3152 17.9544 21.8064 17.3485 21.8064Z" stroke="#1173A9" stroke-width="2" stroke-linecap="round" stroke-linejoin="round"/>
</svg>
