<svg width="502" height="148" viewBox="0 0 502 148" fill="none" xmlns="http://www.w3.org/2000/svg">
<g clip-path="url(#clip0_1_142)">
<g clip-path="url(#clip1_1_142)">
<path d="M124.374 6.58197C124.421 5.92864 124.258 5.24213 124.471 4.61304C124.529 5.16046 124.483 5.71299 124.513 6.26168C124.546 6.33697 124.615 6.48499 124.648 6.559C124.581 6.5641 124.443 6.57559 124.374 6.58197Z" fill="#C04842"/>
<path d="M124.374 6.58205C124.443 6.57567 124.581 6.56419 124.648 6.55908C124.518 7.63096 124.736 8.68752 124.79 9.75301C124.907 10.5493 124.814 11.4004 125.124 12.1545C125.11 12.7236 125.095 13.2991 125.241 13.8555C125.294 14.8406 125.471 15.8117 125.527 16.7968C125.592 17.4373 125.806 18.0549 125.783 18.7044C125.991 19.6589 125.977 20.6581 126.251 21.5947C126.23 22.1242 126.418 22.627 126.454 23.1515C126.624 23.9018 126.643 24.6814 126.88 25.4164C126.938 26.1055 127.148 26.769 127.245 27.453C127.541 28.4611 127.664 29.5125 128.011 30.5053C128.386 32.1233 128.968 33.6839 129.507 35.2522C129.8 35.9157 129.992 36.6201 130.319 37.2683C130.788 38.5341 131.401 39.7438 131.982 40.9624C132.66 42.0981 133.25 43.2887 134.038 44.3554C135.024 45.8969 136.251 47.2623 137.384 48.6914C139.135 50.7803 140.777 52.9572 142.489 55.0793C143.368 56.1984 144.206 57.3468 145.067 58.4799C145.852 59.6577 146.732 60.7717 147.427 62.0095C147.992 62.978 148.503 63.9759 149.05 64.9559C149.972 66.8827 150.846 68.835 151.611 70.832C151.906 71.6844 152.203 72.5368 152.497 73.3892C152.597 73.929 152.825 74.4343 152.945 74.9702C153.043 75.3441 153.048 75.7537 153.297 76.0715C153.266 76.5742 153.479 77.0374 153.562 77.5236C153.616 77.812 153.682 78.1004 153.797 78.3734C153.899 79.5014 154.176 80.6078 154.225 81.7409C154.296 82.5563 154.537 83.35 154.447 84.1718C154.5 85.5346 154.441 86.8999 154.464 88.2628C154.172 89.7174 154.098 91.2079 153.771 92.6587C153.576 93.3746 153.447 94.107 153.271 94.8293C153.024 95.5847 152.867 96.3631 152.644 97.1261C152.036 98.7914 151.45 100.476 150.674 102.075C149.569 104.438 148.21 106.68 146.622 108.746C146.054 109.408 145.575 110.143 144.931 110.738C144.28 111.404 143.613 112.055 142.957 112.718C142.581 113.091 142.195 113.482 141.696 113.689C144.259 110.213 146.389 106.398 147.891 102.344C148.438 101.028 148.798 99.6438 149.159 98.2682C149.386 97.4771 149.577 96.668 149.665 95.8488C149.938 95.0513 149.914 94.1912 150.102 93.3746C150.211 92.8859 150.058 92.3742 150.219 91.8957C150.299 91.6213 150.262 91.3342 150.281 91.0547C150.483 89.8348 150.368 88.5869 150.377 87.3555C150.198 86.8323 150.395 86.2402 150.152 85.7477C150.123 85.2475 150.19 84.7396 150.074 84.2496C149.902 83.4801 149.953 82.6673 149.67 81.9247C149.536 80.8987 149.35 79.869 149.043 78.8813C147.622 73.3114 145.121 68.0554 141.878 63.3212C141.451 62.6909 141.039 62.049 140.546 61.4684C139.921 60.7207 139.522 59.8032 138.832 59.1078C137.458 57.4629 136.058 55.8449 134.616 54.2626C133.576 52.9713 132.258 51.9326 131.23 50.631C130.516 49.9445 129.974 49.1138 129.307 48.3865C128.65 47.4562 127.917 46.5796 127.344 45.5919C126.167 43.4022 125.216 41.0581 124.801 38.6005C124.58 37.8285 124.682 36.9876 124.392 36.2373C124.356 26.3518 124.393 16.4663 124.374 6.58205Z" fill="#ED1D25"/>
<path d="M107.184 41.876C107.425 42.2307 107.424 42.6658 107.51 43.0716C107.88 44.8632 108.34 46.6318 108.845 48.3902C109.093 48.9414 109.248 49.5258 109.418 50.1039C110.215 52.2566 111.044 54.4118 112.171 56.4165C112.503 57.1311 112.984 57.7627 113.37 58.4467C113.698 59.026 114.12 59.5415 114.536 60.0583C115.214 61.0268 116.086 61.8358 116.942 62.6436C117.596 63.1489 118.259 63.6593 119.008 64.023C120.041 64.5831 120.991 65.285 122.025 65.8426C122.667 66.367 123.468 66.658 124.083 67.2156C125.814 68.5363 127.478 69.9451 128.979 71.5248C129.777 72.2624 130.458 73.1071 131.157 73.9365C133.198 76.3074 134.799 79.0292 136.062 81.885C136.839 83.9011 137.491 85.9875 137.759 88.1338C137.694 88.8624 137.944 89.5655 137.898 90.2954C138.021 91.0278 137.887 91.7654 137.937 92.5017C137.856 92.9738 137.943 93.4638 137.806 93.9296C137.729 94.2358 137.757 94.5574 137.726 94.8713C137.513 95.6318 137.397 96.414 137.217 97.1835C136.592 99.1294 135.829 101.058 134.623 102.724C133.945 103.954 132.899 104.918 132.032 106.006C131.278 106.657 130.557 107.341 129.794 107.981C128.678 108.824 127.539 109.64 126.337 110.355C125.828 110.583 125.401 110.98 124.85 111.113C126.026 110.292 127.23 109.491 128.238 108.462C129.804 107.004 131.026 105.22 132.068 103.361C132.684 101.962 133.371 100.559 133.604 99.035C133.871 98.4774 133.852 97.8432 134.027 97.2575C134.176 96.7496 133.93 96.1779 134.185 95.7045C134.217 94.884 134.219 94.0584 134.191 93.2379C134.164 93.1843 134.108 93.0759 134.081 93.0223C134.058 92.5348 134.125 92.0359 133.977 91.5625C133.82 90.9998 133.872 90.3885 133.61 89.8551C133.542 89.2235 133.236 88.6493 133.152 88.0189C133.106 87.973 133.012 87.8798 132.966 87.8339C132.879 87.1334 132.473 86.54 132.204 85.9045C131.27 84.1232 130.188 82.3801 128.7 81.0045C127.953 80.2555 127.224 79.4797 126.339 78.8888C125.457 78.1487 124.41 77.6613 123.436 77.0628C123.155 76.9837 122.894 76.8523 122.635 76.7196C120.518 75.7664 118.227 75.187 115.91 75.0824C115.691 74.9523 115.433 74.9803 115.191 74.9791C113.736 75.0403 112.296 74.5975 111.035 73.897C110.158 73.4223 109.422 72.6911 108.919 71.8323C107.959 70.2654 107.489 68.4483 107.263 66.6376C107.188 66.4934 107.154 66.3415 107.16 66.182C107.157 58.3127 107.16 50.4446 107.16 42.5765C107.161 42.3417 107.169 42.1082 107.184 41.876Z" fill="#ED1C25"/>
<path d="M140.764 111.51C140.764 111.51 139.083 113.507 137.861 114.758L138.901 121.17L130.55 124.132L128.19 119.774C128.19 119.774 126.273 120.367 122.59 120.918L122.799 125.332C122.799 125.332 117.743 126.43 111.887 125.332L112.004 120.308C112.004 120.308 109.354 119.82 107.227 118.964L104.328 123.457L96.9486 119.293L98.9558 114.661C98.9558 114.661 97.5199 113.484 96.3862 112.1L92.7912 114.313L88.2909 108.203L92.225 105.291C92.225 105.291 91.4102 103.061 91.0773 102.012L85.7085 101.787C85.7085 101.787 85.8322 96.858 86.0018 95.0154L90.9332 94.7628C90.9332 94.7628 91.7162 89.5246 94.5243 86.0232C94.5243 86.0232 89.3455 105.008 108.683 113.688C128.021 122.367 149.119 99.835 136.775 76.0496C136.775 76.0496 131.956 66.7983 125.797 63.3262C125.797 63.3262 118.74 63.8162 116.395 56.2927C116.395 56.2927 116.063 55.1595 116.011 52.3637C115.959 49.5679 116.234 18.7668 116.234 18.7668C116.234 18.7668 119.352 40.6331 127.687 50.5352C136.022 60.4373 144.167 68.119 147.034 81.4333C149.9 94.7462 145.92 104.146 140.764 111.51Z" fill="#0072BA"/>
<path d="M112.948 76.9978C113.364 77.3028 113.719 77.6754 114.031 78.085C115.232 79.6315 116.188 81.3555 116.984 83.1407C117.623 84.6681 118.227 86.3001 118.068 87.9845C117.983 88.717 117.517 89.3448 116.959 89.7991C116.818 89.8807 116.854 90.1104 117.011 90.1461C117.686 90.4537 118.454 90.349 119.166 90.5034C119.49 90.5813 119.763 90.7956 120.091 90.8696C120.281 89.6255 120.472 88.375 120.46 87.113C120.443 86.9012 120.446 86.6166 120.179 86.5694C120.145 86.8182 120.211 87.0619 120.226 87.3095C120.226 87.5724 120.066 87.7969 119.952 88.0215C119.595 87.6949 119.429 87.127 119.76 86.7238C119.683 86.6651 119.605 86.6064 119.53 86.5477C119.546 86.2032 119.54 85.842 119.684 85.5205C119.759 85.3533 119.751 85.1632 119.728 84.9871C119.556 84.7804 119.354 84.5826 119.295 84.3108C119.138 83.7289 119.135 83.1164 119.123 82.5167C119.48 82.9773 119.429 83.6039 119.546 84.1487C119.629 84.15 119.795 84.1513 119.878 84.1513C119.963 83.6205 119.88 83.0845 119.754 82.569C119.693 81.959 119.734 81.3414 119.833 80.7392C120.04 81.2942 120.107 81.8889 120.158 82.4746C120.108 82.9773 120.056 83.4941 120.204 83.988C120.219 84.1245 120.397 84.0722 120.491 84.1028C120.551 83.535 120.45 82.9123 120.722 82.3904C120.699 83.036 120.941 83.6689 120.833 84.3146C120.782 84.6668 120.42 84.9067 120.459 85.2793C120.462 85.4299 120.556 85.5562 120.619 85.6876C121.004 86.3882 121.47 87.0785 121.576 87.8888C121.729 89.0985 121.783 90.3426 121.527 91.5408C121.45 91.8445 121.311 92.2835 120.918 92.2503C120.023 92.2133 119.135 92.0742 118.245 91.9734C118.534 92.725 118.93 93.4268 119.26 94.1593C119.332 94.3698 119.519 94.5025 119.704 94.6072C120.478 95.0576 121.3 95.4277 122.157 95.6944C122.446 95.785 122.757 95.7582 123.057 95.7237C123.063 95.3396 123.244 94.9951 123.502 94.7207C123.643 94.5906 123.664 94.3966 123.702 94.2205C123.744 94.2205 123.827 94.2193 123.869 94.2193C123.849 93.5213 123.855 92.822 123.785 92.1266C123.738 91.4885 123.887 90.7701 123.496 90.2125C123.39 90.0313 123.175 89.993 122.993 89.9369C122.948 90.0657 122.908 90.1972 122.868 90.3299C122.582 90.4269 122.214 90.3324 122.159 89.9968C122.075 89.4711 122.039 88.8816 122.311 88.4018C122.491 88.0955 122.961 87.9029 122.862 87.4856C122.76 87.2687 122.52 87.432 122.352 87.4435C122.177 86.8527 122.229 86.1968 122.492 85.6404C122.445 86.3129 122.94 86.8144 123.371 87.261C123.655 87.5698 123.599 88.0419 123.439 88.3967C123.233 88.463 123.02 88.4975 122.807 88.5166C122.801 88.671 122.797 88.8254 122.795 88.9798C123.177 89.0998 123.571 89.2771 123.804 89.6178C124.175 90.2571 124.234 91.0151 124.229 91.7399C124.286 92.6293 124.243 93.5213 124.284 94.4107C124.353 94.4081 124.492 94.4043 124.562 94.4005C124.844 94.7463 124.892 95.198 125.013 95.6114C125.417 95.3894 125.317 94.8981 125.452 94.5357C125.473 94.9555 125.462 95.4175 125.245 95.7888C124.977 96.0619 124.615 96.215 124.267 96.3554C124.271 97.7424 124.21 99.1269 124.229 100.514C124.251 101.254 123.455 101.594 123.289 102.265C123.271 102.024 123.133 101.71 123.378 101.539C123.674 101.276 123.886 100.925 123.91 100.522C123.782 99.2571 123.924 97.9721 123.77 96.7063C122.859 96.8887 121.918 96.7943 121.009 96.6578C119.852 96.474 118.665 95.9534 117.999 94.9466C117.59 94.3609 117.256 93.7254 116.934 93.0887C116.877 92.9062 116.63 92.9292 116.515 93.0338C116.071 93.3834 115.797 93.9143 115.66 94.4528C115.612 94.9466 115.935 95.3907 116.247 95.7416C116.572 96.0746 116.881 96.5225 117.39 96.5557C117.51 96.1831 117.457 95.7952 117.246 95.4685C117.098 95.5948 116.968 95.762 116.776 95.822C116.543 95.8334 116.346 95.6625 116.278 95.4506C116.046 94.8598 116.111 94.1338 116.515 93.6323C116.525 93.862 116.534 94.0917 116.557 94.3226C116.679 94.4426 116.792 94.5727 116.878 94.7246C116.924 94.6799 117.017 94.5919 117.062 94.5472C117.439 94.8637 117.879 95.1648 118.026 95.665C118.085 95.6637 118.202 95.6625 118.261 95.6625C118.332 96.1359 118.446 96.6578 118.171 97.0916C118.451 97.246 118.761 97.3507 119.076 97.4094C119.342 97.2256 119.674 97.1567 119.913 96.9334C119.912 97.1835 119.649 97.5587 119.958 97.7207C120.698 97.9963 121.47 98.2286 122.264 98.2669C122.612 98.2707 122.696 97.8815 122.897 97.6773C123.065 97.5638 123.27 97.5293 123.461 97.4719C123.372 97.6161 123.272 97.7552 123.184 97.9006C123.149 98.1035 123.289 98.2847 123.327 98.48C123.413 98.7301 123.313 98.9917 123.33 99.2481C123.418 99.4395 123.568 99.6131 123.566 99.8351C123.548 100.571 123.146 101.246 122.605 101.727C122.058 102.29 121.412 102.762 120.958 103.411C120.842 103.61 121.019 103.768 121.161 103.879C120.907 104.022 120.628 104.079 120.338 104.073C120.041 104.304 119.772 104.657 119.823 105.055C120.001 105.275 120.357 105.184 120.585 105.083C121.344 104.636 121.643 103.716 122.364 103.223C122.772 102.937 123.121 102.542 123.613 102.39C124.049 102.237 124.614 102.293 124.916 102.677C125.203 102.96 125.349 103.513 125.85 103.44C126.019 103.238 126.249 103.118 126.518 103.122C126.549 103.029 126.582 102.938 126.615 102.848C126.679 103.15 126.527 103.458 126.195 103.487C126.151 103.661 126.098 103.833 126.037 104.003C125.818 104.107 125.577 104.166 125.337 104.11C124.961 103.986 124.701 103.607 124.286 103.579C123.8 103.538 123.351 103.986 123.424 104.479C123.591 104.438 123.765 104.342 123.943 104.388C124.238 104.475 124.238 104.881 124.508 105.006C124.702 105.078 124.864 104.918 125.041 104.87C125.217 104.855 125.394 104.868 125.574 104.874C125.53 105.149 125.204 105.067 125.083 105.263C124.934 105.459 124.767 105.711 124.485 105.683C124.2 105.732 123.978 105.483 123.702 105.489C123.429 105.533 123.249 105.752 123.089 105.955C122.178 107.069 120.888 107.901 119.453 108.123C118.314 108.309 117.156 107.938 116.185 107.357C116.099 107.308 115.946 107.204 115.907 107.364C115.518 108.293 114.691 108.904 114.02 109.615C113.779 109.82 113.997 110.086 114.096 110.301C114.375 110.891 114.634 111.503 114.75 112.15C114.798 112.385 114.648 112.685 114.367 112.617C113.73 112.513 113.079 112.428 112.437 112.519C112.017 112.604 111.568 112.883 111.143 112.687C110.86 112.445 111.146 111.988 110.878 111.728C110.719 111.58 110.706 111.381 110.751 111.182C110.791 111.169 110.871 111.143 110.911 111.131C111.084 111.446 111.481 111.525 111.66 111.839C112.161 111.977 112.449 111.439 112.883 111.303C112.924 111.106 112.829 110.91 112.785 110.721C112.744 110.597 112.716 110.398 112.535 110.454C111.705 110.57 110.848 110.62 110.03 110.401C109.361 110.237 108.752 109.872 108.251 109.404C108.098 109.248 107.985 109.055 107.807 108.926C107.566 109.056 107.415 109.343 107.134 109.422C106.715 109.589 106.31 109.206 105.886 109.342C105.687 109.422 105.492 109.375 105.313 109.273C105.615 109.271 105.753 109.01 105.855 108.766C106.133 108.552 106.433 108.812 106.732 108.783C106.856 108.414 106.943 107.944 107.401 107.856C107.443 107.59 107.308 107.361 107.086 107.225C106.73 107.109 106.366 107.244 106.074 107.445C105.713 107.838 105.559 108.45 105.016 108.644C104.717 108.693 104.493 108.437 104.229 108.342C103.966 108.196 103.724 108.475 103.463 108.466C103.273 108.395 103.145 108.231 103 108.1C103.15 108.095 103.301 108.094 103.452 108.094C103.561 107.962 103.655 107.821 103.73 107.669C103.997 107.576 104.276 107.708 104.549 107.673C104.673 107.619 104.765 107.514 104.865 107.429C104.938 106.878 105.032 106.274 105.443 105.863C106.017 105.428 106.842 105.452 107.464 105.77C108.124 106.067 108.607 106.64 109.257 106.952C109.549 107.1 109.886 107.04 110.201 107.026C110.184 106.885 110.179 106.74 110.074 106.635C109.733 106.16 109.246 105.635 109.403 105.003C109.195 104.895 108.925 104.841 108.816 104.61C108.68 104.383 108.719 104.11 108.714 103.858C108.388 103.913 108.068 103.764 107.936 103.458C108.199 103.531 108.437 103.434 108.672 103.323C108.926 103.367 109.214 103.519 109.454 103.349C110.033 102.94 110.366 102.281 110.667 101.657C110.817 101.281 111.025 100.913 111.059 100.502C110.663 100.449 110.387 99.9819 110.661 99.6424C110.827 99.8811 111.141 99.9602 111.41 99.8747C111.596 99.7522 111.692 99.534 111.743 99.3247C111.451 99.2839 111.136 99.2622 110.891 99.0823C110.714 98.9661 110.609 98.776 110.477 98.6191C110.348 98.5629 110.229 98.6497 110.119 98.702C110.066 98.554 109.973 98.4442 109.799 98.4914C109.723 98.7416 109.827 99.0031 109.833 99.2571C109.852 99.7611 109.85 100.266 109.825 100.77C109.734 100.689 109.641 100.608 109.548 100.532C109.46 100.625 109.376 100.719 109.291 100.813C109.259 100.209 109.28 99.6042 109.266 99.0006C108.937 99.0988 108.644 99.4089 108.274 99.2851C107.666 99.007 107.454 98.3 107.274 97.7118C107.058 96.7994 106.938 95.8462 107.051 94.9109C107.081 94.486 107.351 94.1401 107.543 93.7778C107.712 93.46 107.9 93.155 108.065 92.836C107.49 92.8462 106.824 92.8603 106.408 92.3881C106.356 92.2388 106.281 92.0946 106.278 91.9339C106.225 90.6336 106.56 89.3499 106.48 88.0509C106.317 87.9233 106.156 87.7931 105.998 87.6617C105.961 87.6617 105.886 87.6642 105.849 87.6642C105.819 87.6898 105.759 87.7395 105.73 87.765C105.701 88.1019 105.72 88.5447 105.377 88.7336C105.004 88.8739 104.613 88.9875 104.211 88.9977C104.521 88.8407 104.865 88.768 105.179 88.62C105.299 88.5562 105.248 88.3928 105.284 88.2869C105.164 88.1708 104.999 87.9998 104.821 88.1223C104.587 88.2512 104.336 88.3329 104.068 88.3291C104.082 88.255 104.11 88.1083 104.126 88.0356C103.797 87.9998 103.426 88.0126 103.16 87.7842C103.215 87.7344 103.325 87.6362 103.38 87.5877C103.214 87.3452 102.965 87.1589 102.87 86.8718C102.941 86.8501 103.085 86.8042 103.155 86.7825C103.041 86.4456 102.956 86.0858 103.144 85.7578C103.209 85.7655 103.339 85.7808 103.404 85.7884C103.556 85.4541 103.829 85.2002 104.182 85.0892C104.183 85.1543 104.183 85.287 104.184 85.352C104.632 85.3431 105.114 85.3814 105.485 85.6621C106.203 86.193 107.198 86.4571 107.61 87.3197C108.036 88.4924 107.754 89.7684 107.944 90.9768C108.349 91.3035 108.889 90.9309 109.208 90.6489C109.196 89.4622 109.229 88.2755 109.195 87.09C109.067 87.09 108.94 87.09 108.815 87.0913C108.956 86.734 109.081 86.3703 109.231 86.0156C109.398 86.3576 109.516 86.72 109.65 87.076C109.58 87.0798 109.441 87.0887 109.371 87.0926C109.417 87.9947 109.396 88.8982 109.424 89.8029C109.437 90.0734 109.389 90.3567 109.498 90.6144C109.997 90.4332 110.516 90.3337 111.029 90.2048C110.998 89.9547 111.114 89.6102 110.853 89.4532C110.258 89.0398 109.923 88.3112 109.964 87.5915C110.01 86.6268 110.368 85.7144 110.739 84.834C111.341 83.415 112.076 82.0573 112.62 80.6141C113.056 79.4771 113.378 78.1845 112.948 76.9978ZM113.681 78.7511C113.646 79.333 113.489 79.897 113.314 80.4495C112.712 82.2781 111.768 83.9675 111.1 85.7693C110.894 86.3856 110.635 87.0262 110.743 87.6898C110.867 88.2117 111.216 88.6468 111.614 88.9926C111.809 89.1419 111.789 89.4047 111.816 89.6255C112.167 89.4022 112.516 89.0589 112.378 88.5996C112.322 88.6327 112.211 88.6978 112.155 88.731C112.185 88.0534 111.937 87.409 111.814 86.7544C111.563 86.4443 111.437 86.0245 111.66 85.6596C111.761 85.8535 111.804 86.1228 112.078 86.1126C112.106 85.546 112.727 85.4005 113.067 85.056C113.072 84.7089 113.435 84.5571 113.459 84.2176C113.362 84.0964 113.157 84.016 113.174 83.8361C113.124 83.5503 113.389 83.3844 113.597 83.2581C113.681 82.948 113.574 82.6596 113.438 82.3878C113.805 82.0548 113.742 81.5316 113.799 81.0837C113.736 81.1015 113.61 81.1347 113.547 81.1526C113.54 81.0161 113.526 80.7443 113.518 80.6103C113.601 80.7443 113.705 80.8604 113.832 80.9599C114.023 80.4036 113.838 79.8421 113.823 79.2806C113.89 79.5524 113.982 79.8166 114.094 80.0743C114.259 80.6792 114.191 81.3172 114.305 81.9323C114.412 82.0407 114.531 82.1479 114.587 82.2947C114.621 82.5333 114.332 82.703 114.411 82.9493C114.413 83.3474 115.052 83.3053 114.992 83.734C115.055 83.9739 114.783 84.0951 114.764 84.3108C114.788 84.5328 114.871 84.7421 114.908 84.9616C115.273 85.1772 115.711 85.3278 115.952 85.7017C116.094 85.9084 116.097 86.1674 116.111 86.4086C116.171 86.3958 116.29 86.3716 116.349 86.3588C116.273 87.1028 115.792 87.7102 115.586 88.4133C114.912 88.5804 115.409 89.6625 115.975 89.4851C116.21 89.3078 116.185 88.9913 116.154 88.7336C116.415 88.7693 116.576 88.9671 116.665 89.1993C116.973 88.9709 117.228 88.6481 117.27 88.2538C117.311 87.7446 117.415 87.2304 117.325 86.7212C117.166 85.657 116.766 84.6502 116.363 83.66C115.635 81.9629 114.784 80.3168 113.807 78.7485C113.776 78.7511 113.713 78.7511 113.681 78.7511ZM104.179 86.193C103.913 86.3652 103.835 86.7748 104.052 87.0173C104.235 87.2444 104.562 87.2202 104.819 87.1704C105.077 87.0824 105.036 86.7404 104.985 86.5298C104.927 86.1802 104.469 85.9697 104.179 86.193ZM109.599 93.7458C109.618 94.9874 109.645 96.2277 109.681 97.4681C109.653 97.5 109.597 97.5638 109.569 97.5957C109.658 97.5599 109.748 97.5229 109.839 97.4872C110.026 97.6199 110.186 97.7896 110.32 97.9785C110.261 97.6748 110.422 97.4157 110.503 97.135C110.765 97.0878 110.904 97.2894 111.062 97.454C111.177 97.0674 110.706 97.0176 110.562 96.7496C110.525 96.5621 110.564 96.3745 110.609 96.1946C110.737 96.1218 110.832 96.0146 110.887 95.8794C111.011 96.0287 110.905 96.2214 110.871 96.3834C111.07 96.4983 111.291 96.5863 111.462 96.7471C111.581 96.8964 111.65 97.0789 111.748 97.2422C111.781 97.0623 111.818 96.8811 111.904 96.7177C112.076 96.4102 112.017 96.0134 111.814 95.7352C111.476 95.2656 111.143 94.7833 110.928 94.2422C110.709 93.7535 110.831 93.1742 110.502 92.725C110.234 93.0951 109.882 93.3886 109.599 93.7458ZM108.564 94.6072C108.751 95.4813 108.544 96.3732 108.39 97.2345C108.349 97.5459 108.533 97.81 108.768 97.9925C108.954 97.8253 109.14 97.6544 109.363 97.537C109.35 96.3451 109.301 95.1533 109.291 93.9615C109.042 94.1682 108.793 94.3775 108.564 94.6072ZM111.382 97.8534C111.302 97.8317 111.14 97.7909 111.061 97.7692C110.953 97.9249 110.901 98.1163 111.007 98.2911C111.104 98.6063 111.493 98.6254 111.766 98.5897C111.965 98.5757 112.131 98.3268 111.969 98.1648C111.796 97.9555 111.768 97.6875 111.753 97.4285C111.64 97.5752 111.573 97.7896 111.382 97.8534ZM118.213 101.283C117.527 101.556 116.79 101.653 116.066 101.77C116.248 102.344 116.332 102.951 116.586 103.5C116.932 104.101 117.567 104.495 118.222 104.678C118.469 104.115 118.722 103.556 118.947 102.984C119.281 102.3 119.777 101.715 120.177 101.072C119.513 100.98 118.841 101.055 118.213 101.283ZM112.976 103.85C112.616 104.309 112.137 104.685 111.909 105.238C112.085 105.676 112.31 106.122 112.68 106.428C113.225 105.608 113.513 104.563 113.25 103.594C113.119 103.626 113.061 103.76 112.976 103.85Z" fill="#323A96"/>
<path d="M74.2554 130.964C74.6852 130.964 75.0052 131.064 75.2144 131.261C75.4095 131.445 75.5064 131.707 75.5064 132.045V135.48H74.0412V132.116C74.0412 131.98 74.008 131.882 73.9417 131.819C73.8575 131.739 73.7134 131.698 73.5119 131.698H72.2328C71.8656 131.698 71.6819 131.791 71.6819 131.979V132.116H72.2112V132.442C72.053 132.442 71.9383 132.481 71.8669 132.56C71.7954 132.64 71.7597 132.751 71.7597 132.893V135.479H70.2932V133.141C70.2932 133.016 70.32 132.9 70.3735 132.791C70.4271 132.683 70.5291 132.577 70.6796 132.475H70.1567V132.045C70.1567 131.711 70.2537 131.452 70.4488 131.268C70.6617 131.066 70.9831 130.964 71.4129 130.964H74.2554Z" fill="#0072BA"/>
<path d="M79.1867 133.346C79.1867 133.129 79.0579 133.021 78.8016 133.021H76.2944C76.2944 131.614 76.9282 130.909 78.1958 130.909C78.3718 130.909 78.7008 130.972 79.1816 131.097C79.4099 131.155 79.6037 131.185 79.7657 131.185C79.9085 131.185 80.0475 131.169 80.1814 131.138C80.3153 131.107 80.4683 131.048 80.6418 130.964L80.7412 131.719C80.5869 131.786 80.4479 131.834 80.3255 131.866C80.2018 131.898 80.0564 131.913 79.8868 131.913C79.7032 131.913 79.5106 131.879 79.3079 131.809C78.8526 131.651 78.5478 131.571 78.3935 131.571C78.1691 131.571 77.9969 131.659 77.8757 131.836C77.7801 131.976 77.7329 132.128 77.7329 132.294H79.8549C80.1266 132.294 80.3306 132.364 80.4671 132.503C80.592 132.632 80.6545 132.808 80.6545 133.033V134.587C80.6545 134.866 80.5704 135.084 80.4007 135.243C80.2311 135.401 80.0003 135.48 79.707 135.48H79.0515C78.8092 135.48 78.6065 135.412 78.4432 135.278C78.28 135.144 78.1984 134.967 78.1984 134.746C78.1984 134.533 78.28 134.357 78.4432 134.219C78.6065 134.081 78.8092 134.013 79.0515 134.013L79.1893 134.024V133.346H79.1867ZM79.2097 135.038C79.3168 135.038 79.4061 135.01 79.48 134.953C79.554 134.896 79.5897 134.82 79.5897 134.725C79.5897 134.629 79.5527 134.552 79.48 134.494C79.4073 134.435 79.3168 134.406 79.2097 134.406C79.1025 134.406 79.012 134.435 78.9368 134.494C78.8615 134.552 78.8233 134.63 78.8233 134.725C78.8233 134.82 78.8602 134.897 78.9329 134.953C79.0069 135.01 79.0987 135.038 79.2097 135.038Z" fill="#0072BA"/>
<path d="M83.9919 133.258C84.2164 133.299 84.4956 133.484 84.8298 133.815C85.1639 134.145 85.5018 134.482 85.8436 134.824V130.964H87.3088V134.984C87.3088 135.167 87.2578 135.3 87.1545 135.381C87.0742 135.447 86.9594 135.48 86.8128 135.48H86.0693C85.878 135.48 85.651 135.354 85.3858 135.1C85.1511 134.85 84.9177 134.6 84.6856 134.35C84.4064 134.056 84.1755 133.879 83.9919 133.82V134.813C83.9919 135.037 83.9154 135.208 83.7611 135.326C83.6285 135.429 83.4691 135.48 83.2816 135.48H82.6529C82.2856 135.48 82.0025 135.401 81.8049 135.243C81.5626 135.048 81.4414 134.728 81.4414 134.283C81.4414 133.934 81.5345 133.657 81.722 133.45C81.9388 133.215 82.2066 133.098 82.5266 133.098V132.419L82.394 132.43C82.1479 132.43 81.9426 132.363 81.7793 132.229C81.6161 132.095 81.5345 131.917 81.5345 131.697C81.5345 131.48 81.6174 131.304 81.7819 131.167C81.9477 131.031 82.1517 130.963 82.394 130.963H83.0444C83.3377 130.963 83.5698 131.042 83.7381 131.2C83.9065 131.358 83.9919 131.577 83.9919 131.856V133.258ZM81.9859 134.306C81.9859 134.574 82.0484 134.753 82.1734 134.841C82.2474 134.892 82.3647 134.919 82.5266 134.919V133.629C82.3902 133.629 82.2767 133.669 82.1849 133.75C82.0523 133.867 81.9859 134.052 81.9859 134.306ZM82.1683 131.72C82.1683 131.815 82.204 131.892 82.2754 131.948C82.3468 132.005 82.4374 132.033 82.5483 132.033C82.6542 132.033 82.746 132.005 82.8212 131.948C82.8965 131.891 82.9347 131.815 82.9347 131.72C82.9347 131.624 82.8977 131.547 82.8251 131.491C82.7511 131.434 82.6593 131.406 82.5496 131.406C82.4425 131.406 82.3532 131.434 82.2792 131.491C82.2053 131.549 82.1683 131.624 82.1683 131.72Z" fill="#0072BA"/>
<path d="M90.0251 128.682V134.014H90.1514C90.4013 134.014 90.6092 134.08 90.7762 134.212C90.9433 134.344 91.0275 134.522 91.0275 134.746C91.0275 134.967 90.9433 135.144 90.7762 135.278C90.6092 135.412 90.4 135.48 90.1514 135.48H89.4296C89.1363 135.48 88.9093 135.377 88.7524 135.171C88.6236 135.003 88.5598 134.804 88.5598 134.575V129.199H87.1494C87.1494 128.689 87.2999 128.307 87.6009 128.058C87.8546 127.849 88.1887 127.745 88.6032 127.745C88.7613 127.745 88.9488 127.76 89.1656 127.789C89.654 127.856 89.9486 127.889 90.0468 127.889C90.1832 127.889 90.3069 127.877 90.4217 127.853C90.5352 127.829 90.6513 127.785 90.7686 127.723V128.296C90.7023 128.347 90.6207 128.385 90.5237 128.409C90.4268 128.434 90.3248 128.445 90.2177 128.445C90.0812 128.445 89.8096 128.407 89.4015 128.329C89.2064 128.292 89.0648 128.274 88.9769 128.274C88.7307 128.274 88.5522 128.324 88.4425 128.423C88.3839 128.478 88.3354 128.565 88.2997 128.682H90.0251ZM90.4 134.746C90.4 134.654 90.3631 134.579 90.2904 134.52C90.2164 134.462 90.1246 134.432 90.0149 134.432C89.9052 134.432 89.8134 134.462 89.7395 134.52C89.6655 134.579 89.6298 134.654 89.6298 134.746C89.6298 134.838 89.6668 134.913 89.7395 134.972C89.8134 135.031 89.9052 135.06 90.0149 135.06C90.1246 135.06 90.2164 135.031 90.2904 134.972C90.3631 134.915 90.4 134.839 90.4 134.746Z" fill="#0072BA"/>
<path d="M94.384 133.346C94.384 133.129 94.2552 133.021 93.9988 133.021H91.4917C91.4917 131.614 92.1255 130.909 93.3931 130.909C93.5691 130.909 93.8981 130.972 94.3789 131.097C94.6071 131.155 94.801 131.185 94.9629 131.185C95.1058 131.185 95.2448 131.169 95.3787 131.138C95.5126 131.107 95.6656 131.048 95.839 130.964L95.9385 131.719C95.7842 131.786 95.6452 131.834 95.5228 131.866C95.3991 131.898 95.2537 131.913 95.0841 131.913C94.9004 131.913 94.7079 131.879 94.5051 131.809C94.0499 131.651 93.7451 131.571 93.5908 131.571C93.3663 131.571 93.1942 131.659 93.073 131.836C92.9774 131.976 92.9302 132.128 92.9302 132.294H95.0522C95.3238 132.294 95.5279 132.364 95.6643 132.503C95.7893 132.632 95.8518 132.808 95.8518 133.033V134.587C95.8518 134.866 95.7676 135.084 95.598 135.243C95.4284 135.401 95.1976 135.48 94.9043 135.48H94.2488C94.0065 135.48 93.8037 135.412 93.6405 135.278C93.4773 135.144 93.3957 134.967 93.3957 134.746C93.3957 134.533 93.4773 134.357 93.6405 134.219C93.8037 134.081 94.0065 134.013 94.2488 134.013L94.3865 134.024V133.346H94.384ZM94.4069 135.038C94.514 135.038 94.6033 135.01 94.6773 134.953C94.7512 134.896 94.787 134.82 94.787 134.725C94.787 134.629 94.75 134.552 94.6773 134.494C94.6046 134.435 94.514 134.406 94.4069 134.406C94.2998 134.406 94.2093 134.435 94.134 134.494C94.0588 134.552 94.0205 134.63 94.0205 134.725C94.0205 134.82 94.0575 134.897 94.1302 134.953C94.2042 135.01 94.296 135.038 94.4069 135.038Z" fill="#0072BA"/>
<path d="M99.1458 132.42L99.0132 132.432C98.7709 132.432 98.5668 132.364 98.401 132.227C98.2353 132.091 98.1536 131.915 98.1536 131.698C98.1536 131.481 98.2365 131.305 98.401 131.168C98.5668 131.032 98.7709 130.964 99.0132 130.964H99.6635C99.9568 130.964 100.189 131.043 100.357 131.201C100.526 131.36 100.611 131.578 100.611 131.857V134.394C100.611 134.857 100.535 135.157 100.38 135.292C100.24 135.418 100.013 135.48 99.6967 135.48H97.7341C97.6716 135.469 97.6257 135.456 97.5964 135.442C97.5007 135.397 97.4382 135.328 97.4089 135.232L96.4167 132.084L97.1832 130.965L98.1307 134.748H98.6816C98.8729 134.748 99.0017 134.713 99.0667 134.643C99.1177 134.588 99.1432 134.494 99.1432 134.362V132.42H99.1458ZM98.7874 131.72C98.7874 131.815 98.8231 131.892 98.8946 131.948C98.966 132.005 99.0565 132.033 99.1675 132.033C99.2733 132.033 99.3651 132.005 99.4404 131.948C99.5156 131.891 99.5539 131.815 99.5539 131.72C99.5539 131.624 99.5169 131.547 99.4442 131.491C99.3702 131.434 99.2784 131.406 99.1687 131.406C99.0616 131.406 98.9724 131.434 98.8984 131.491C98.8244 131.549 98.7874 131.624 98.7874 131.72Z" fill="#0072BA"/>
<path d="M103.906 132.42L103.774 132.432C103.531 132.432 103.327 132.364 103.161 132.227C102.996 132.091 102.914 131.915 102.914 131.698C102.914 131.481 102.997 131.305 103.161 131.168C103.327 131.032 103.531 130.964 103.774 130.964H104.424C104.717 130.964 104.949 131.043 105.118 131.201C105.286 131.36 105.371 131.578 105.371 131.857V134.394C105.371 134.857 105.295 135.157 105.141 135.292C105 135.418 104.773 135.48 104.457 135.48H102.496C102.433 135.469 102.387 135.456 102.358 135.442C102.262 135.397 102.2 135.328 102.171 135.232L101.178 132.084L101.945 130.965L102.892 134.748H103.443C103.635 134.748 103.763 134.713 103.828 134.643C103.879 134.588 103.905 134.494 103.905 134.362V132.42H103.906ZM103.548 131.72C103.548 131.815 103.584 131.892 103.655 131.948C103.726 132.005 103.817 132.033 103.928 132.033C104.034 132.033 104.126 132.005 104.201 131.948C104.276 131.891 104.314 131.815 104.314 131.72C104.314 131.624 104.277 131.547 104.205 131.491C104.131 131.434 104.039 131.406 103.929 131.406C103.822 131.406 103.733 131.434 103.659 131.491C103.585 131.549 103.548 131.624 103.548 131.72Z" fill="#0072BA"/>
<path d="M110.27 135.48H108.804V132.116C108.804 131.984 108.77 131.885 108.7 131.819C108.616 131.739 108.472 131.698 108.27 131.698H107.763C107.564 131.698 107.423 131.739 107.338 131.819C107.268 131.885 107.233 131.985 107.233 132.116V132.259H105.939V132.045C105.939 131.707 106.035 131.448 106.226 131.268C106.439 131.066 106.76 130.964 107.19 130.964H109.075C109.501 130.964 109.813 131.065 110.012 131.268C110.184 131.444 110.271 131.703 110.271 132.045V135.48H110.27Z" fill="#0072BA"/>
<path d="M113.406 134.78C113.761 134.424 114.083 134.105 114.37 133.825C114.69 133.512 114.984 133.311 115.257 133.219V130.964H116.729V133.142C117.001 133.142 117.21 133.225 117.358 133.39C117.53 133.585 117.616 133.894 117.616 134.316C117.616 134.647 117.539 134.924 117.382 135.146C117.225 135.368 117.022 135.479 116.774 135.479H115.755C115.612 135.479 115.497 135.446 115.413 135.379C115.31 135.299 115.259 135.166 115.259 134.982V133.819C115.071 133.911 114.836 134.106 114.553 134.403C114.329 134.642 114.106 134.882 113.881 135.12C113.635 135.359 113.436 135.479 113.286 135.479H112.438C112.295 135.479 112.18 135.446 112.096 135.379C111.993 135.299 111.942 135.166 111.942 134.982V132.419L111.809 132.43C111.567 132.43 111.363 132.363 111.197 132.226C111.031 132.09 110.949 131.914 110.949 131.697C110.949 131.48 111.032 131.304 111.197 131.167C111.361 131.031 111.567 130.963 111.809 130.963H112.459C112.753 130.963 112.985 131.042 113.153 131.2C113.321 131.358 113.407 131.577 113.407 131.856V134.78H113.406ZM111.582 131.72C111.582 131.815 111.618 131.892 111.689 131.948C111.761 132.005 111.851 132.033 111.962 132.033C112.068 132.033 112.16 132.005 112.235 131.948C112.31 131.891 112.348 131.815 112.348 131.72C112.348 131.624 112.311 131.547 112.239 131.491C112.165 131.434 112.073 131.406 111.963 131.406C111.856 131.406 111.767 131.434 111.693 131.491C111.619 131.549 111.582 131.624 111.582 131.72ZM116.729 133.66V134.939C116.865 134.939 116.966 134.878 117.032 134.757C117.099 134.635 117.132 134.481 117.132 134.293C117.132 134.088 117.104 133.935 117.049 133.835C116.981 133.719 116.876 133.66 116.729 133.66Z" fill="#0072BA"/>
<path d="M123.291 134.394C123.291 134.736 123.196 134.996 123.004 135.176C122.791 135.378 122.47 135.48 122.04 135.48H119.329C118.899 135.48 118.579 135.38 118.37 135.183C118.175 134.999 118.078 134.736 118.078 134.394V133.529C118.078 133.249 118.162 133.031 118.332 132.873C118.5 132.715 118.732 132.636 119.026 132.636H119.681C119.923 132.636 120.126 132.703 120.289 132.837C120.453 132.971 120.534 133.149 120.534 133.369C120.534 133.582 120.453 133.759 120.289 133.896C120.126 134.034 119.923 134.103 119.681 134.103L119.543 134.092V134.329C119.543 134.462 119.578 134.56 119.648 134.626C119.732 134.707 119.874 134.748 120.073 134.748H121.296C121.495 134.748 121.635 134.707 121.72 134.626C121.79 134.56 121.825 134.46 121.825 134.329V132.118C121.825 131.985 121.79 131.887 121.72 131.82C121.636 131.74 121.495 131.699 121.296 131.699H120.073C119.874 131.699 119.733 131.74 119.648 131.82C119.578 131.887 119.543 131.986 119.543 132.118V132.261H118.078V132.046C118.078 131.708 118.174 131.449 118.365 131.269C118.578 131.067 118.899 130.965 119.329 130.965H122.052C122.485 130.965 122.807 131.074 123.016 131.291C123.2 131.482 123.291 131.75 123.291 132.096V134.394ZM119.522 133.076C119.415 133.076 119.324 133.104 119.249 133.161C119.174 133.219 119.135 133.294 119.135 133.39C119.135 133.486 119.172 133.562 119.245 133.618C119.319 133.676 119.411 133.704 119.52 133.704C119.628 133.704 119.718 133.676 119.793 133.618C119.869 133.561 119.907 133.486 119.907 133.39C119.907 133.294 119.87 133.218 119.797 133.161C119.724 133.105 119.633 133.076 119.522 133.076Z" fill="#0072BA"/>
<path d="M121.699 136.958C121.544 136.958 121.414 136.904 121.307 136.798C121.201 136.691 121.148 136.561 121.148 136.406C121.148 136.252 121.201 136.119 121.307 136.01C121.432 135.881 121.604 135.817 121.825 135.817H122.459C122.679 135.817 122.863 135.867 123.01 135.966C123.197 136.091 123.29 136.279 123.29 136.529V137.742H121.825V136.949L121.699 136.958ZM121.622 136.418C121.622 136.488 121.648 136.544 121.7 136.589C121.752 136.634 121.816 136.655 121.892 136.655C121.97 136.655 122.034 136.634 122.085 136.589C122.136 136.544 122.162 136.488 122.162 136.418C122.162 136.348 122.136 136.292 122.085 136.247C122.034 136.202 121.969 136.181 121.892 136.181C121.818 136.181 121.756 136.204 121.702 136.249C121.649 136.295 121.622 136.352 121.622 136.418Z" fill="#0072BA"/>
<path d="M129.545 135.48H128.074V132.116C128.074 131.987 128.039 131.894 127.969 131.836C127.885 131.765 127.74 131.731 127.534 131.731H127.391C127.27 131.731 127.153 131.782 127.038 131.885C127.001 131.919 126.955 131.972 126.9 132.045C126.827 131.975 126.768 131.924 126.724 131.89C126.582 131.785 126.453 131.731 126.339 131.731H126.19C125.989 131.731 125.85 131.763 125.774 131.828C125.699 131.892 125.661 131.989 125.661 132.118V134.973C125.712 134.956 125.801 134.883 125.927 134.755C126.054 134.629 126.166 134.508 126.26 134.394C126.462 134.159 126.643 133.935 126.8 133.722C126.616 133.722 126.45 133.637 126.304 133.468C126.19 133.339 126.133 133.177 126.133 132.983C126.133 132.781 126.204 132.608 126.347 132.465C126.49 132.322 126.663 132.25 126.865 132.25C127.078 132.25 127.256 132.326 127.399 132.476C127.542 132.627 127.615 132.817 127.615 133.044C127.615 133.198 127.524 133.419 127.344 133.706C127.231 133.89 127.045 134.148 126.788 134.478C126.575 134.754 126.369 134.99 126.168 135.186C125.968 135.383 125.833 135.481 125.763 135.481H124.699C124.563 135.481 124.448 135.431 124.353 135.332C124.245 135.222 124.193 135.072 124.193 134.88V132.046C124.193 131.7 124.276 131.441 124.441 131.269C124.636 131.067 124.944 130.965 125.366 130.965H126.176C126.348 130.965 126.515 131.016 126.677 131.12C126.732 131.153 126.798 131.206 126.876 131.279C126.943 131.209 127.001 131.158 127.052 131.125C127.21 131.018 127.374 130.965 127.543 130.965H128.358C128.78 130.965 129.089 131.065 129.284 131.263C129.456 131.439 129.543 131.7 129.543 132.046V135.48H129.545ZM126.608 132.993C126.608 133.07 126.633 133.133 126.682 133.183C126.732 133.233 126.793 133.257 126.867 133.257C126.941 133.257 127.002 133.233 127.052 133.183C127.102 133.133 127.126 133.07 127.126 132.993C127.126 132.919 127.102 132.858 127.052 132.808C127.002 132.758 126.941 132.734 126.867 132.734C126.793 132.734 126.732 132.759 126.682 132.808C126.633 132.856 126.608 132.92 126.608 132.993Z" fill="#0072BA"/>
<path d="M135.64 132.095V135.48H134.185V133.865C134.185 133.728 134.159 133.622 134.108 133.544C134.024 133.419 133.874 133.357 133.657 133.357H132.279C132.143 133.357 132.049 133.384 131.995 133.437C131.942 133.491 131.915 133.565 131.915 133.66V134.024L132.052 134.013C132.295 134.013 132.498 134.08 132.661 134.214C132.824 134.348 132.906 134.526 132.906 134.746C132.906 134.959 132.824 135.136 132.661 135.273C132.498 135.411 132.295 135.48 132.052 135.48H131.397C131.104 135.48 130.872 135.401 130.703 135.243C130.534 135.085 130.449 134.866 130.449 134.587V133.435C130.449 133.163 130.531 132.957 130.694 132.82C130.858 132.682 131.081 132.613 131.364 132.613H133.7C133.843 132.613 133.967 132.641 134.07 132.696C134.103 132.714 134.141 132.743 134.186 132.784V132.116C134.186 131.984 134.152 131.885 134.081 131.819C133.997 131.739 133.856 131.698 133.657 131.698H132.356C132.157 131.698 132.017 131.739 131.931 131.819C131.861 131.885 131.827 131.985 131.827 132.116V132.259H130.449V132.045C130.449 131.707 130.545 131.448 130.736 131.268C130.949 131.066 131.271 130.964 131.7 130.964H133.833C133.932 130.964 134.015 130.92 134.08 130.831C134.146 130.743 134.18 130.631 134.18 130.495C134.18 130.461 134.177 130.436 134.174 130.417H135.651C135.651 130.63 135.558 130.806 135.371 130.946C135.308 130.991 135.215 131.039 135.09 131.096C135.215 131.162 135.307 131.226 135.366 131.288C135.548 131.485 135.64 131.753 135.64 132.095ZM132.278 134.725C132.278 134.633 132.24 134.556 132.165 134.496C132.089 134.435 131.999 134.406 131.892 134.406C131.785 134.406 131.694 134.435 131.619 134.494C131.544 134.552 131.505 134.63 131.505 134.725C131.505 134.82 131.542 134.897 131.615 134.953C131.689 135.01 131.781 135.039 131.89 135.039C131.996 135.039 132.088 135.01 132.163 134.953C132.241 134.897 132.278 134.82 132.278 134.725Z" fill="#0072BA"/>
<path d="M140.538 135.48H139.073V132.116C139.073 131.984 139.038 131.885 138.968 131.819C138.884 131.739 138.74 131.698 138.538 131.698H138.032C137.833 131.698 137.692 131.739 137.607 131.819C137.537 131.885 137.503 131.985 137.503 132.116V132.259H136.208V132.045C136.208 131.707 136.304 131.448 136.495 131.268C136.708 131.066 137.03 130.964 137.46 130.964H139.344C139.77 130.964 140.083 131.065 140.282 131.268C140.454 131.444 140.541 131.703 140.541 132.045V135.48H140.538Z" fill="#0072BA"/>
<path d="M146.533 132.398C146.621 132.461 146.687 132.522 146.732 132.581C146.868 132.761 146.936 132.981 146.936 133.242V135.48H145.47V132.993C145.47 132.956 145.458 132.938 145.432 132.938C145.414 132.938 145.394 132.949 145.372 132.971C145.265 133.078 145.125 133.26 144.95 133.517C144.775 133.775 144.619 134.03 144.48 134.284C144.241 134.73 144.092 134.995 144.033 135.083C143.861 135.347 143.712 135.48 143.587 135.48H142.706C142.563 135.48 142.448 135.447 142.364 135.38C142.261 135.3 142.21 135.167 142.21 134.983V134.509V132.419L142.077 132.43C141.835 132.43 141.631 132.362 141.465 132.226C141.299 132.089 141.218 131.913 141.218 131.696C141.218 131.479 141.3 131.303 141.465 131.167C141.629 131.03 141.835 130.963 142.077 130.963H142.727C143.021 130.963 143.253 131.042 143.421 131.2C143.591 131.358 143.675 131.576 143.675 131.856V134.552C143.675 134.593 143.684 134.612 143.703 134.612C143.732 134.612 143.762 134.584 143.791 134.529C143.901 134.297 144.017 134.077 144.138 133.867C144.304 133.584 144.467 133.336 144.629 133.123C144.83 132.859 145.051 132.619 145.291 132.406C145.173 132.351 145.087 132.3 145.032 132.251C144.86 132.105 144.773 131.926 144.773 131.717C144.773 131.478 144.876 131.288 145.082 131.149C145.287 131.01 145.561 130.94 145.903 130.94C146.245 130.94 146.519 131.01 146.724 131.149C146.929 131.288 147.033 131.478 147.033 131.717C147.033 131.908 146.966 132.068 146.834 132.197C146.775 132.254 146.677 132.32 146.533 132.398ZM141.85 131.719C141.85 131.815 141.886 131.892 141.957 131.948C142.029 132.005 142.119 132.033 142.23 132.033C142.336 132.033 142.428 132.005 142.503 131.948C142.578 131.89 142.616 131.815 142.616 131.719C142.616 131.624 142.579 131.547 142.507 131.491C142.433 131.434 142.341 131.405 142.231 131.405C142.124 131.405 142.035 131.434 141.961 131.491C141.886 131.548 141.85 131.624 141.85 131.719ZM145.459 131.742C145.459 131.842 145.5 131.921 145.583 131.982C145.666 132.043 145.771 132.073 145.899 132.073C146.028 132.073 146.134 132.043 146.215 131.985C146.298 131.926 146.339 131.846 146.339 131.742C146.339 131.643 146.297 131.564 146.213 131.505C146.129 131.446 146.024 131.417 145.899 131.417C145.766 131.417 145.661 131.445 145.579 131.502C145.499 131.559 145.459 131.639 145.459 131.742Z" fill="#0072BA"/>
<path d="M151.823 130.964C152.252 130.964 152.573 131.064 152.782 131.261C152.977 131.445 153.074 131.707 153.074 132.045V135.48H151.608V132.116C151.608 131.98 151.575 131.882 151.509 131.819C151.425 131.739 151.281 131.698 151.079 131.698H149.801C149.434 131.698 149.25 131.791 149.25 131.979V132.116H149.78V132.442C149.622 132.442 149.507 132.481 149.435 132.56C149.364 132.64 149.328 132.751 149.328 132.893V135.479H147.863V133.141C147.863 133.016 147.89 132.9 147.943 132.791C147.997 132.683 148.099 132.577 148.249 132.475H147.727V132.045C147.727 131.711 147.823 131.452 148.019 131.268C148.232 131.066 148.553 130.964 148.983 130.964H151.823Z" fill="#0072BA"/>
<path d="M156.755 133.346C156.755 133.129 156.627 133.021 156.37 133.021H153.863C153.863 131.614 154.497 130.909 155.764 130.909C155.94 130.909 156.269 130.972 156.75 131.097C156.978 131.155 157.172 131.185 157.334 131.185C157.477 131.185 157.616 131.169 157.75 131.138C157.884 131.107 158.037 131.048 158.21 130.964L158.31 131.719C158.156 131.786 158.017 131.834 157.894 131.866C157.77 131.898 157.625 131.913 157.455 131.913C157.272 131.913 157.079 131.879 156.876 131.809C156.421 131.651 156.116 131.571 155.962 131.571C155.738 131.571 155.566 131.659 155.444 131.836C155.349 131.976 155.302 132.128 155.302 132.294H157.424C157.695 132.294 157.899 132.364 158.036 132.503C158.161 132.632 158.223 132.808 158.223 133.033V134.587C158.223 134.866 158.139 135.084 157.969 135.243C157.8 135.401 157.569 135.48 157.276 135.48H156.62C156.378 135.48 156.175 135.412 156.012 135.278C155.849 135.144 155.767 134.967 155.767 134.746C155.767 134.533 155.849 134.357 156.012 134.219C156.175 134.081 156.378 134.013 156.62 134.013L156.758 134.024V133.346H156.755ZM156.777 135.038C156.883 135.038 156.973 135.01 157.047 134.953C157.121 134.896 157.157 134.82 157.157 134.725C157.157 134.629 157.12 134.552 157.047 134.494C156.975 134.435 156.884 134.406 156.777 134.406C156.67 134.406 156.579 134.435 156.504 134.494C156.429 134.552 156.391 134.63 156.391 134.725C156.391 134.82 156.428 134.897 156.5 134.953C156.575 135.01 156.667 135.038 156.777 135.038Z" fill="#0072BA"/>
<path d="M161.901 133.346C161.901 133.129 161.772 133.021 161.516 133.021H159.009C159.009 131.614 159.643 130.909 160.91 130.909C161.086 130.909 161.415 130.972 161.896 131.097C162.124 131.155 162.318 131.185 162.48 131.185C162.623 131.185 162.762 131.169 162.896 131.138C163.03 131.107 163.183 131.048 163.356 130.964L163.456 131.719C163.301 131.786 163.162 131.834 163.04 131.866C162.916 131.898 162.771 131.913 162.601 131.913C162.418 131.913 162.225 131.879 162.022 131.809C161.567 131.651 161.262 131.571 161.108 131.571C160.883 131.571 160.711 131.659 160.59 131.836C160.494 131.976 160.447 132.128 160.447 132.294H162.569C162.841 132.294 163.045 132.364 163.181 132.503C163.306 132.632 163.369 132.808 163.369 133.033V134.587C163.369 134.866 163.285 135.084 163.115 135.243C162.945 135.401 162.715 135.48 162.421 135.48H161.766C161.524 135.48 161.321 135.412 161.158 135.278C160.994 135.144 160.913 134.967 160.913 134.746C160.913 134.533 160.994 134.357 161.158 134.219C161.321 134.081 161.524 134.013 161.766 134.013L161.904 134.024V133.346H161.901ZM161.924 135.038C162.03 135.038 162.12 135.01 162.194 134.953C162.268 134.896 162.304 134.82 162.304 134.725C162.304 134.629 162.267 134.552 162.194 134.494C162.122 134.435 162.031 134.406 161.924 134.406C161.817 134.406 161.726 134.435 161.651 134.494C161.576 134.552 161.538 134.63 161.538 134.725C161.538 134.82 161.575 134.897 161.647 134.953C161.721 135.01 161.813 135.038 161.924 135.038Z" fill="#0072BA"/>
<path d="M166.706 133.258C166.93 133.299 167.21 133.484 167.544 133.815C167.878 134.145 168.216 134.482 168.558 134.824V130.964H170.023V134.984C170.023 135.167 169.972 135.3 169.869 135.381C169.788 135.447 169.674 135.48 169.527 135.48H168.783C168.592 135.48 168.365 135.354 168.1 135.1C167.865 134.85 167.632 134.6 167.4 134.35C167.12 134.056 166.89 133.879 166.706 133.82V134.813C166.706 135.037 166.628 135.208 166.475 135.326C166.343 135.429 166.183 135.48 165.996 135.48H165.367C165 135.48 164.717 135.401 164.519 135.243C164.277 135.048 164.156 134.728 164.156 134.283C164.156 133.934 164.249 133.657 164.436 133.45C164.653 133.215 164.921 133.098 165.241 133.098V132.419L165.108 132.43C164.862 132.43 164.657 132.363 164.493 132.229C164.33 132.095 164.249 131.917 164.249 131.697C164.249 131.48 164.332 131.304 164.496 131.167C164.662 131.031 164.866 130.963 165.108 130.963H165.759C166.052 130.963 166.284 131.042 166.452 131.2C166.621 131.358 166.706 131.577 166.706 131.856V133.258ZM164.7 134.306C164.7 134.574 164.763 134.753 164.888 134.841C164.961 134.892 165.079 134.919 165.239 134.919V133.629C165.103 133.629 164.99 133.669 164.898 133.75C164.766 133.867 164.7 134.052 164.7 134.306ZM164.882 131.72C164.882 131.815 164.918 131.892 164.99 131.948C165.061 132.005 165.151 132.033 165.262 132.033C165.37 132.033 165.46 132.005 165.535 131.948C165.611 131.891 165.649 131.815 165.649 131.72C165.649 131.624 165.612 131.547 165.539 131.491C165.465 131.434 165.373 131.406 165.264 131.406C165.158 131.406 165.067 131.434 164.993 131.491C164.919 131.549 164.882 131.624 164.882 131.72Z" fill="#0072BA"/>
<path d="M70.033 138.738H71.8757C72.3896 138.738 72.7582 138.864 72.9788 139.117C73.2122 139.382 73.3295 139.822 73.3295 140.439V141.367C73.3295 141.986 73.2351 142.432 73.0477 142.702C72.8449 142.992 72.4967 143.136 72.0045 143.136H70.033V138.738ZM71.0022 142.115H71.8476C72.0198 142.115 72.1448 142.051 72.2213 141.924C72.2978 141.796 72.3373 141.61 72.3373 141.367V140.439C72.3373 140.168 72.3016 139.987 72.2289 139.896C72.1563 139.806 72.03 139.76 71.8476 139.76H71.0022V142.115Z" fill="#0072BA"/>
<path d="M74.8074 140.507H76.3492V141.32H74.8074V142.17H76.4882V143.136H73.842V138.738H76.4512V139.704H74.8074V140.507Z" fill="#0072BA"/>
<path d="M77.0876 143.136V138.738H78.9074C79.3538 138.738 79.6713 138.863 79.8613 139.111C80.0501 139.362 80.1457 139.775 80.1457 140.354C80.1457 140.986 80.0654 141.416 79.906 141.643C79.7363 141.887 79.4048 142.008 78.9087 142.008H78.0492V143.135H77.0876V143.136ZM78.7085 140.988C78.9023 140.988 79.0248 140.954 79.0758 140.884C79.1268 140.815 79.1523 140.639 79.1523 140.354C79.1523 140.121 79.1242 139.963 79.0694 139.881C79.0146 139.799 78.8934 139.758 78.7098 139.758H78.0492V140.987H78.7085V140.988Z" fill="#0072BA"/>
<path d="M81.3636 142.378L81.1927 143.136H80.1865L81.2718 138.738H82.7447L83.8439 143.136H82.8556L82.6669 142.378H81.3636ZM82.0293 139.615L81.5765 141.528H82.4769L82.0293 139.615Z" fill="#0072BA"/>
<path d="M84.0518 138.738H85.9226C86.3663 138.738 86.6788 138.823 86.8599 138.991C87.0665 139.188 87.1697 139.548 87.1697 140.068C87.1697 140.509 87.1417 140.802 87.0869 140.946C87.0001 141.177 86.8025 141.336 86.4913 141.422V141.473C86.6915 141.473 86.8497 141.54 86.9644 141.675C87.0805 141.809 87.1379 141.999 87.1379 142.245V143.137H86.1725V142.522C86.1725 142.346 86.1419 142.215 86.0807 142.125C86.0131 142.023 85.9085 141.972 85.767 141.972H85.0235V143.136H84.0543V138.738H84.0518ZM85.7644 140.951C85.9608 140.951 86.0832 140.899 86.1291 140.795C86.1597 140.724 86.1751 140.544 86.1751 140.259C86.1751 140.062 86.147 139.929 86.0922 139.862C86.0373 139.794 85.9277 139.76 85.7644 139.76H85.0209V140.951H85.7644Z" fill="#0072BA"/>
<path d="M89.2688 143.136H88.3034V139.758H87.375V138.738H90.2469V139.758H89.2675V143.136H89.2688Z" fill="#0072BA"/>
<path d="M91.5096 143.136H90.5442V138.738H92.0681L92.7606 141.5H92.7976L93.4581 138.738H95.0229V143.136H94.0626L94.1595 139.767H94.1225L93.2031 143.136H92.3627L91.4343 139.767H91.4063L91.5096 143.136Z" fill="#0072BA"/>
<path d="M96.5926 140.507H98.1343V141.32H96.5926V142.17H98.2733V143.136H95.6272V138.738H98.2364V139.704H96.5926V140.507Z" fill="#0072BA"/>
<path d="M99.8536 143.136H98.8882V138.738H100.518L101.561 142.115H101.603L101.538 138.738H102.504V143.136H100.855L99.8293 139.758H99.7872L99.8536 143.136Z" fill="#0072BA"/>
<path d="M104.706 143.136H103.74V139.758H102.812V138.738H105.684V139.758H104.704V143.136H104.706Z" fill="#0072BA"/>
<path d="M108.224 141.556V140.319C108.224 139.691 108.382 139.252 108.7 139.002C108.955 138.799 109.36 138.697 109.914 138.697C110.462 138.697 110.86 138.796 111.11 138.997C111.428 139.247 111.586 139.687 111.586 140.319V141.556C111.586 142.184 111.429 142.623 111.115 142.873C110.863 143.074 110.462 143.173 109.915 143.173C109.36 143.173 108.956 143.074 108.701 142.873C108.384 142.623 108.224 142.184 108.224 141.556ZM110.585 141.431V140.437C110.585 140.13 110.535 139.929 110.437 139.836C110.354 139.76 110.179 139.72 109.915 139.72C109.641 139.72 109.462 139.757 109.379 139.831C109.277 139.921 109.226 140.122 109.226 140.436V141.43C109.226 141.741 109.277 141.943 109.379 142.035C109.462 142.111 109.641 142.151 109.915 142.151C110.18 142.151 110.353 142.114 110.433 142.04C110.534 141.949 110.585 141.745 110.585 141.431Z" fill="#0072BA"/>
<path d="M112.976 140.562H114.458V141.528H112.976V143.136H112.007V138.738H114.579V139.704H112.977V140.562H112.976Z" fill="#0072BA"/>
<path d="M118.374 143.136H117.409V138.738H118.374V143.136Z" fill="#0072BA"/>
<path d="M119.944 143.136H118.98V138.738H120.61L121.653 142.115H121.695L121.63 138.738H122.595V143.136H120.946L119.921 139.758H119.879L119.944 143.136Z" fill="#0072BA"/>
<path d="M123.145 138.738H124.988C125.501 138.738 125.87 138.864 126.091 139.117C126.324 139.382 126.441 139.822 126.441 140.439V141.367C126.441 141.986 126.347 142.432 126.159 142.702C125.957 142.992 125.609 143.136 125.116 143.136H123.145V138.738ZM124.114 142.115H124.959C125.132 142.115 125.257 142.051 125.333 141.924C125.41 141.796 125.449 141.61 125.449 141.367V140.439C125.449 140.168 125.413 139.987 125.341 139.896C125.268 139.806 125.142 139.76 124.959 139.76H124.114V142.115Z" fill="#0072BA"/>
<path d="M130.07 138.738V141.671C130.07 142.244 129.951 142.641 129.711 142.863C129.489 143.07 129.101 143.173 128.548 143.173C127.864 143.173 127.417 143.056 127.204 142.822C127.032 142.631 126.945 142.248 126.945 141.671V138.738H127.91V141.648C127.91 141.873 127.965 142.018 128.076 142.082C128.156 142.128 128.313 142.151 128.547 142.151C128.771 142.151 128.918 142.123 128.985 142.068C129.068 141.998 129.11 141.838 129.11 141.592V138.736H130.07V138.738Z" fill="#0072BA"/>
<path d="M132.319 140.456C132.854 140.456 133.213 140.543 133.393 140.715C133.572 140.888 133.663 141.226 133.663 141.727C133.663 142.06 133.645 142.293 133.608 142.425C133.547 142.665 133.413 142.844 133.206 142.961C132.96 143.103 132.588 143.174 132.089 143.174C131.71 143.174 131.441 143.154 131.281 143.114C131.035 143.053 130.855 142.924 130.74 142.73C130.611 142.508 130.546 142.168 130.546 141.71H131.478C131.478 141.928 131.52 142.068 131.603 142.129C131.675 142.182 131.835 142.208 132.088 142.208C132.331 142.208 132.49 142.187 132.564 142.143C132.653 142.091 132.697 141.977 132.697 141.801C132.697 141.614 132.669 141.499 132.615 141.457C132.56 141.415 132.414 141.394 132.181 141.394L131.968 141.376C131.611 141.376 131.358 141.356 131.211 141.316C130.989 141.258 130.827 141.138 130.726 140.957C130.612 140.754 130.555 140.449 130.555 140.042C130.555 139.641 130.616 139.34 130.74 139.136C130.853 138.951 131.029 138.828 131.267 138.766C131.443 138.72 131.716 138.697 132.089 138.697C132.428 138.697 132.672 138.713 132.824 138.748C133.063 138.8 133.242 138.907 133.359 139.071C133.498 139.265 133.567 139.552 133.567 139.931V140.12H132.635C132.635 139.91 132.593 139.778 132.51 139.723C132.449 139.683 132.309 139.663 132.09 139.663C131.847 139.663 131.689 139.695 131.615 139.76C131.56 139.806 131.532 139.9 131.532 140.042C131.532 140.205 131.564 140.312 131.629 140.366C131.684 140.409 131.781 140.431 131.92 140.431L132.319 140.456Z" fill="#0072BA"/>
<path d="M135.731 143.136H134.766V139.758H133.838V138.738H136.71V139.758H135.73V143.136H135.731Z" fill="#0072BA"/>
<path d="M136.979 138.738H138.849C139.293 138.738 139.606 138.823 139.787 138.991C139.993 139.188 140.097 139.548 140.097 140.068C140.097 140.509 140.068 140.802 140.014 140.946C139.927 141.177 139.729 141.336 139.418 141.422V141.473C139.618 141.473 139.776 141.54 139.891 141.675C140.007 141.809 140.065 141.999 140.065 142.245V143.137H139.099V142.522C139.099 142.346 139.069 142.215 139.007 142.125C138.94 142.023 138.835 141.972 138.694 141.972H137.95V143.136H136.981V138.738H136.979ZM138.691 140.951C138.888 140.951 139.01 140.899 139.056 140.795C139.087 140.724 139.102 140.544 139.102 140.259C139.102 140.062 139.074 139.929 139.019 139.862C138.964 139.794 138.854 139.76 138.691 139.76H137.948V140.951H138.691Z" fill="#0072BA"/>
<path d="M141.559 143.136H140.594V138.738H141.559V143.136Z" fill="#0072BA"/>
<path d="M142.986 142.378L142.815 143.136H141.809L142.895 138.738H144.367L145.467 143.136H144.478L144.29 142.378H142.986ZM143.651 139.615L143.198 141.528H144.098L143.651 139.615Z" fill="#0072BA"/>
<path d="M146.648 142.115H148.163V143.136H145.687V138.738H146.648V142.115Z" fill="#0072BA"/>
<path d="M155.025 138.738H156.004L155.201 143.136H153.807L153.308 140.382H153.276L152.741 143.136H151.358L150.573 138.738H151.556L152.083 142.124H152.115L152.798 138.738H153.804L154.451 142.124H154.479L155.025 138.738Z" fill="#0072BA"/>
<path d="M156.109 141.556V140.319C156.109 139.691 156.267 139.252 156.584 139.002C156.839 138.799 157.245 138.697 157.798 138.697C158.347 138.697 158.745 138.796 158.995 138.997C159.312 139.247 159.47 139.687 159.47 140.319V141.556C159.47 142.184 159.313 142.623 159 142.873C158.747 143.074 158.347 143.173 157.8 143.173C157.246 143.173 156.841 143.074 156.586 142.873C156.268 142.623 156.109 142.184 156.109 141.556ZM158.469 141.431V140.437C158.469 140.13 158.419 139.929 158.321 139.836C158.238 139.76 158.064 139.72 157.8 139.72C157.525 139.72 157.347 139.757 157.264 139.831C157.162 139.921 157.111 140.122 157.111 140.436V141.43C157.111 141.741 157.162 141.943 157.264 142.035C157.347 142.111 157.525 142.151 157.8 142.151C158.065 142.151 158.237 142.114 158.317 142.04C158.418 141.949 158.469 141.745 158.469 141.431Z" fill="#0072BA"/>
<path d="M159.9 138.738H161.771C162.214 138.738 162.527 138.823 162.708 138.991C162.915 139.188 163.018 139.548 163.018 140.068C163.018 140.509 162.99 140.802 162.935 140.946C162.848 141.177 162.651 141.336 162.339 141.422V141.473C162.54 141.473 162.698 141.54 162.813 141.675C162.929 141.809 162.986 141.999 162.986 142.245V143.137H162.021V142.522C162.021 142.346 161.99 142.215 161.929 142.125C161.861 142.023 161.757 141.972 161.615 141.972H160.872V143.136H159.902V138.738H159.9ZM161.614 140.951C161.81 140.951 161.933 140.899 161.979 140.795C162.009 140.724 162.024 140.544 162.024 140.259C162.024 140.062 161.996 139.929 161.942 139.862C161.887 139.794 161.777 139.76 161.614 139.76H160.87V140.951H161.614Z" fill="#0072BA"/>
<path d="M164.495 140.391H164.785L165.718 138.738H166.891L165.612 140.895L166.993 143.136H165.788L164.785 141.412H164.495V143.136H163.529V138.738H164.495V140.391Z" fill="#0072BA"/>
<path d="M168.803 140.456C169.338 140.456 169.697 140.543 169.876 140.715C170.056 140.888 170.147 141.226 170.147 141.727C170.147 142.06 170.129 142.293 170.092 142.425C170.031 142.665 169.897 142.844 169.69 142.961C169.444 143.103 169.072 143.174 168.573 143.174C168.194 143.174 167.925 143.154 167.765 143.114C167.518 143.053 167.339 142.924 167.224 142.73C167.095 142.508 167.03 142.168 167.03 141.71H167.962C167.962 141.928 168.004 142.068 168.087 142.129C168.159 142.182 168.319 142.208 168.572 142.208C168.815 142.208 168.974 142.187 169.047 142.143C169.137 142.091 169.181 141.977 169.181 141.801C169.181 141.614 169.153 141.499 169.098 141.457C169.044 141.415 168.898 141.394 168.665 141.394L168.452 141.376C168.095 141.376 167.842 141.356 167.694 141.316C167.473 141.258 167.311 141.138 167.21 140.957C167.096 140.754 167.039 140.449 167.039 140.042C167.039 139.641 167.1 139.34 167.224 139.136C167.337 138.951 167.513 138.828 167.751 138.766C167.927 138.72 168.199 138.697 168.573 138.697C168.912 138.697 169.156 138.713 169.308 138.748C169.547 138.8 169.726 138.907 169.843 139.071C169.982 139.265 170.051 139.552 170.051 139.931V140.12H169.119C169.119 139.91 169.077 139.778 168.994 139.723C168.933 139.683 168.792 139.663 168.574 139.663C168.331 139.663 168.173 139.695 168.099 139.76C168.044 139.806 168.016 139.9 168.016 140.042C168.016 140.205 168.048 140.312 168.113 140.366C168.168 140.409 168.264 140.431 168.403 140.431L168.803 140.456Z" fill="#0072BA"/>
</g>
</g>
<g clip-path="url(#clip2_1_142)">
<path d="M360.05 138.038V144.728C360.05 144.938 360.03 145.088 360.24 145.098H360.8V146.278H359.92C359.17 146.278 358.67 145.918 358.67 144.878V138.038H360.05Z" fill="#EA913D"/>
<path d="M365.19 145.288C366.37 145.288 366.8 144.068 366.8 143.288C366.8 141.958 366.29 140.988 365.42 140.988V139.788C366.39 139.788 366.99 138.218 366.99 136.348H368.37C368.37 139.548 366.78 140.328 366.61 140.388C366.7 140.448 368.18 140.988 368.18 143.308C368.18 144.878 367.4 146.448 365.17 146.448C362.94 146.448 362.38 145.138 362.38 143.698V142.818C362.38 141.678 362.89 141.008 363.28 140.578C363.43 140.368 363.67 140.038 363.67 139.828C363.67 139.478 363.39 139.208 362.87 139.208H361.81V138.028H362.87C364.31 138.028 365.06 138.698 365.06 139.818C365.06 140.438 364.72 140.938 364.35 141.318C364.14 141.528 363.73 142.008 363.73 142.818V143.768C363.73 144.588 363.99 145.278 365.19 145.278" fill="#EA913D"/>
<path d="M361.4 135.468H363.58V134.368H364.65V135.468H365.21V134.368H366.46V136.628H360.91L361.4 135.468Z" fill="#EA913D"/>
<path d="M366.35 131.258H364.97V133.518H366.35V131.258Z" fill="#EA913D"/>
<path d="M369.96 139.248C370.43 138.558 371.32 137.848 372.95 137.848C375.81 137.848 376.75 140.278 376.75 142.168C376.75 145.068 375.05 146.448 372.95 146.448C370.85 146.448 369.4 145.248 369.4 143.288C369.4 142.338 369.68 141.938 370.43 141.938H372.26V143.118H371.06C370.86 143.098 370.76 143.198 370.78 143.398C370.83 144.408 371.53 145.288 372.97 145.288C374.63 145.288 375.38 144.128 375.38 142.168C375.38 140.208 374.43 139.028 372.95 139.028C372 139.028 371.45 139.418 371.14 139.848C370.95 140.088 370.82 140.348 370.73 140.648H369.38C369.47 140.128 369.68 139.658 369.96 139.248Z" fill="#EA913D"/>
<path d="M379.42 138.038V143.968C379.59 144.178 379.79 144.338 380.02 144.488C380.39 144.768 380.9 145.008 381.5 145.008C382.98 145.008 383.46 144.298 383.46 142.948V138.028H384.84V143.568C384.84 144.838 383.89 146.448 382.15 146.448C381.19 146.448 380.52 146.108 380.07 145.758C379.81 145.548 379.58 145.328 379.42 145.068V146.288H378.04V138.038H379.42Z" fill="#EA913D"/>
<path d="M387.03 135.658C387.03 134.538 387.85 133.918 389.7 133.918H391.68V135.098H390.24C388.91 135.098 388.41 135.248 388.41 135.758C388.41 136.388 388.78 137.048 388.78 138.598V144.728C388.78 144.938 388.76 145.088 388.97 145.098H389.53V146.278H388.6C387.85 146.278 387.4 145.828 387.4 144.878V138.598C387.4 137.028 387.03 136.348 387.03 135.658Z" fill="#EA913D"/>
<path d="M395.59 142.448C395.52 142.508 395.4 142.538 395.25 142.598C394.97 142.668 394.54 142.748 393.79 142.748C393.04 142.748 391.92 143.138 391.92 144.128C391.92 144.928 392.54 145.288 393.28 145.288C393.56 145.288 393.79 145.228 393.99 145.178L394.27 145.068V146.268C394.19 146.308 394.1 146.338 394.01 146.378C393.82 146.438 393.56 146.468 393.24 146.468C391.54 146.468 390.53 145.688 390.53 144.128C390.53 142.258 392.29 141.588 393.78 141.588C394.62 141.588 395.07 141.518 395.31 141.438C395.44 141.388 395.53 141.328 395.57 141.268V140.838C395.57 139.808 395.03 139.038 393.78 139.038C392.94 139.038 392.28 139.448 391.85 139.848C391.59 140.088 391.36 140.348 391.18 140.648L390.69 139.488C390.86 139.168 391.1 138.908 391.38 138.668C391.89 138.238 392.65 137.848 393.77 137.848C396 137.848 396.95 139.068 396.95 141.138V146.278H395.57V142.448H395.59Z" fill="#EA913D"/>
<path d="M404.08 140.948C404.08 139.378 402.75 139.018 401.71 139.018C401.04 139.018 400.57 139.278 400.21 139.518C400 139.648 399.83 139.818 399.7 140.008L400.84 140.938C400.75 141.028 400.65 141.168 400.6 141.298C400.47 141.538 400.37 141.898 400.37 142.478V146.278H399.02V142.448C399.02 141.978 399.1 141.628 399.19 141.348C399.24 141.198 399.3 141.068 399.36 140.958C399.15 140.788 398.97 140.618 398.8 140.488C398.52 140.268 398.26 140.038 398.26 140.018C398.47 139.628 398.75 139.248 399.06 138.938C399.6 138.398 400.46 137.848 401.66 137.848C403.49 137.848 405.44 138.728 405.44 140.578V145.068C405.44 145.418 405.21 145.698 405.01 145.928C404.88 146.058 404.75 146.188 404.6 146.288H404.08V140.958V140.948Z" fill="#EA913D"/>
<path d="M416.95 145.078H417.51V146.278H416.61C415.81 146.278 415.39 145.808 415.39 144.878V139.068C415.39 137.588 415.75 137.028 415.75 136.268C415.75 135.368 415.32 134.918 414.48 134.918C413.97 134.918 413.62 135.178 413.38 135.458C413.25 135.628 413.12 135.798 413 135.998L412.53 134.838C412.66 134.628 412.81 134.468 413 134.298C413.32 134.018 413.8 133.738 414.53 133.738C416.04 133.738 417.13 134.488 417.13 136.258C417.13 137.378 416.75 137.418 416.75 139.058V144.708C416.75 144.918 416.73 145.058 416.94 145.078" fill="#EA913D"/>
<path d="M425.38 138.038L422.58 140.838C423.57 141.048 425.23 141.678 425.23 143.938V146.278H423.85L423.83 144.198C423.83 142.198 422.37 141.638 421.83 141.548L420.19 143.228L420.17 146.278H418.8V138.028H420.18V141.378L423.54 138.028H425.37L425.38 138.038Z" fill="#EA913D"/>
<path d="M425.27 136.628H422.26C421.74 136.628 421.34 136.328 421.34 135.898C421.34 135.578 421.15 135.518 421 135.518H420.36V134.358H421.87C422.24 134.358 422.62 134.708 422.62 135.088C422.62 135.298 422.79 135.468 422.99 135.468H425.7L425.25 136.628H425.27Z" fill="#EA913D"/>
<path d="M430.28 145.078H430.84V146.278H429.94C429.12 146.278 428.71 145.808 428.71 144.878V136.648C428.71 136.178 428.82 134.948 428.2 135.098C427.99 135.158 427.81 135.438 427.66 135.678C427.57 135.828 427.49 135.998 427.41 136.168C427.28 135.958 427.13 135.798 426.96 135.648C426.66 135.368 426.25 135.108 425.71 135.108V133.928C426.57 133.928 427.17 134.658 427.28 134.768C427.37 134.618 427.49 134.488 427.62 134.358C427.84 134.148 428.18 133.928 428.68 133.928C429.93 133.928 430.08 135.258 430.08 136.658V144.718C430.08 144.928 430.06 145.068 430.27 145.088" fill="#EA913D"/>
<path d="M432.13 146.278V138.028H433.51V139.258C433.68 138.998 433.9 138.748 434.16 138.548C434.61 138.198 435.26 137.838 436.22 137.838C437.9 137.838 438.93 139.368 438.93 140.758V146.278H437.55V141.328C437.55 139.998 437.1 139.218 435.61 139.218C434.99 139.218 434.47 139.458 434.1 139.738C433.87 139.888 433.69 140.058 433.52 140.258L433.5 146.278H432.14H432.13Z" fill="#EA913D"/>
<path d="M441.2 142.058C441.48 141.848 441.82 141.698 442.19 141.608C441.85 141.558 441.56 141.438 441.29 141.288C440.84 141.008 440.41 140.578 440.41 139.828C440.41 138.428 441.53 137.848 442.37 137.848C442.88 137.848 443.23 137.908 443.47 137.958C443.6 137.998 443.73 138.028 443.84 138.068V139.288C443.75 139.248 443.62 139.218 443.49 139.158C443.26 139.108 442.98 139.028 442.63 139.028C442.18 139.028 441.79 139.368 441.79 139.828C441.79 140.628 442.65 141.008 443.84 141.008V142.188C442.27 142.188 441.6 143.198 441.6 143.848C441.6 144.768 442.11 145.288 443.45 145.288C444.87 145.288 445.45 144.348 445.45 143.508V138.028H446.83V143.428C446.83 144.848 445.93 146.438 443.45 146.438C440.97 146.438 440.21 145.278 440.21 143.838C440.21 142.958 440.68 142.398 441.18 142.048" fill="#EA913D"/>
<path d="M449.8 138.038V144.728C449.8 144.938 449.78 145.088 449.99 145.098H450.55V146.278H449.61C448.86 146.278 448.41 145.848 448.41 144.878V138.038H449.8ZM453.11 138.038V144.728C453.11 144.938 453.09 145.088 453.3 145.098H453.86V146.278H452.94C452.19 146.278 451.72 145.848 451.72 144.878V138.038H453.1H453.11Z" fill="#EA913D"/>
<path d="M459.91 142.448C459.84 142.508 459.72 142.538 459.57 142.598C459.29 142.668 458.86 142.748 458.11 142.748C457.36 142.748 456.24 143.138 456.24 144.128C456.24 144.928 456.86 145.288 457.6 145.288C457.88 145.288 458.11 145.228 458.31 145.178L458.59 145.068V146.268C458.52 146.308 458.42 146.338 458.33 146.378C458.14 146.438 457.88 146.468 457.57 146.468C455.87 146.468 454.86 145.688 454.86 144.128C454.86 142.258 456.62 141.588 458.11 141.588C458.95 141.588 459.4 141.518 459.64 141.438C459.77 141.388 459.86 141.328 459.9 141.268V140.838C459.9 139.808 459.36 139.038 458.11 139.038C457.27 139.038 456.61 139.448 456.18 139.848C455.92 140.088 455.69 140.348 455.51 140.648L455.02 139.488C455.19 139.168 455.43 138.908 455.71 138.668C456.22 138.238 456.98 137.848 458.1 137.848C460.33 137.848 461.28 139.068 461.28 141.138V146.278H459.9V142.448H459.91Z" fill="#EA913D"/>
<path d="M461.31 134.368H459.93V136.628H461.31V134.368Z" fill="#EA913D"/>
<path d="M469.67 138.068V146.278H468.29V145.038C468.1 145.298 467.88 145.548 467.62 145.748C467.17 146.108 466.5 146.438 465.55 146.438C463.85 146.438 462.88 144.908 462.88 143.538V138.058H464.26V143.028C464.26 144.528 464.97 145.088 466.15 145.088C466.8 145.088 467.33 144.848 467.7 144.568C467.93 144.418 468.13 144.248 468.3 144.048V138.068H469.68H469.67Z" fill="#EA913D"/>
<path d="M359.77 120.568V126.368C359.77 126.548 359.76 126.678 359.93 126.688H360.42V127.708H359.66C359.01 127.708 358.58 127.398 358.58 126.488V120.558H359.78L359.77 120.568Z" fill="#EA913D"/>
<path d="M364.07 126.858C364.91 126.858 365.19 126.078 365.19 125.368V120.568H366.39V125.368C366.39 126.658 365.89 127.868 364.01 127.868C362.31 127.868 361.8 126.668 361.8 125.368V124.718C361.8 123.708 362.24 123.148 362.58 122.778C362.71 122.598 362.92 122.308 362.92 122.128C362.92 121.858 362.74 121.598 362.31 121.598H361.3V120.578H362.31C363.48 120.578 364.12 121.158 364.12 122.128C364.12 122.668 363.81 123.118 363.49 123.438C363.31 123.618 362.97 124.088 362.97 124.718V125.368C362.97 126.178 363.2 126.858 364.07 126.858Z" fill="#EA913D"/>
<path d="M370.92 127.768C370.79 127.818 370.58 127.868 370.32 127.868C368.54 127.868 367.5 126.248 367.5 124.078C367.5 121.518 368.52 120.418 369.64 120.418C369.88 120.418 370.14 120.628 370.35 120.868C370.46 120.998 370.58 121.148 370.69 121.328C370.79 121.148 370.9 121.008 371.01 120.868C371.21 120.628 371.47 120.418 371.72 120.418C372.71 120.418 373.71 121.518 373.71 122.658V127.728H372.51V122.658C372.51 121.998 372.04 121.438 371.63 121.438C371.48 121.438 371.24 121.698 371.05 121.958C370.94 122.108 370.8 122.278 370.68 122.458C370.55 122.278 370.42 122.098 370.31 121.958C370.1 121.698 369.87 121.438 369.69 121.438C369.3 121.438 368.67 121.958 368.67 124.078C368.67 125.698 369.17 126.868 370.36 126.868C370.57 126.868 370.77 126.838 370.91 126.758C370.99 126.728 371.06 126.698 371.12 126.648V127.688C371.06 127.718 370.99 127.748 370.91 127.788" fill="#EA913D"/>
<path d="M374.6 120.568H375.75L377.15 125.428L378.49 120.568H379.24L380.56 125.428L381.97 120.568H383.13L381.08 127.718H380.24L378.86 122.738L377.49 127.718H376.66L374.6 120.568Z" fill="#EA913D"/>
<path d="M383.47 119.358H380.65C379.74 119.358 379.17 119.048 379.17 117.968V117.398H380.31V117.978C380.31 118.258 380.42 118.368 380.99 118.368H383.89L383.47 119.358Z" fill="#EA913D"/>
<path d="M394.19 120.568V125.368C394.19 126.498 393.69 127.868 392.23 127.868C391.4 127.868 390.87 127.578 390.49 127.268C390.28 127.088 390.12 126.878 389.97 126.648V127.718H388.77V122.648C388.77 121.998 388.41 121.428 387.91 121.428C387.73 121.428 387.49 121.688 387.29 121.948C387.18 122.098 387.05 122.268 386.93 122.448C386.8 122.268 386.67 122.088 386.56 121.948C386.35 121.688 386.12 121.428 385.95 121.428C385.51 121.428 384.94 121.948 384.94 124.068C384.94 125.448 385.31 126.858 386.61 126.858C386.82 126.858 387.01 126.828 387.16 126.748C387.24 126.718 387.31 126.678 387.37 126.638V127.678C387.37 127.678 387.26 127.738 387.18 127.778C387.05 127.828 386.86 127.878 386.61 127.878C384.83 127.878 383.74 126.338 383.74 124.088C383.74 121.528 384.76 120.428 385.88 120.428C386.06 120.428 386.34 120.638 386.55 120.878C386.66 121.008 386.79 121.148 386.94 121.328C387.07 121.148 387.2 121.008 387.31 120.878C387.52 120.638 387.78 120.428 387.97 120.428C389.09 120.428 389.96 121.528 389.96 122.668V125.828C390.07 126.008 390.22 126.148 390.4 126.278C390.71 126.518 391.08 126.718 391.65 126.718C392.77 126.718 392.98 126.218 392.98 124.908V120.598H394.18L394.19 120.568Z" fill="#EA913D"/>
<path d="M401.45 120.598V127.708H400.25V126.638C400.09 126.868 399.89 127.078 399.67 127.258C399.28 127.568 398.7 127.858 397.87 127.858C396.4 127.858 395.55 126.528 395.55 125.348V120.598H396.75V124.908C396.75 126.208 397.37 126.688 398.39 126.688C398.96 126.688 399.41 126.478 399.73 126.238C399.93 126.108 400.1 125.968 400.25 125.788V120.598H401.45Z" fill="#EA913D"/>
<path d="M403.06 120.768C403.38 120.588 403.85 120.408 404.44 120.408C405.82 120.408 407.34 121.288 407.34 123.098V127.718H406.14V123.258C406.14 121.958 405.23 121.428 404.32 121.428C403.82 121.428 403.38 121.608 403.07 121.788C402.88 121.898 402.71 122.018 402.57 122.148V121.128C402.7 120.998 402.86 120.878 403.06 120.768Z" fill="#EA913D"/>
<path d="M408.21 120.568H409.36L410.75 125.428L412.1 120.568H412.84L414.17 125.428L415.58 120.568H416.73L414.69 127.718H413.85L412.47 122.738L411.09 127.718H410.27L408.21 120.568Z" fill="#EA913D"/>
<path d="M411.51 118.368H415.91V119.348H411.09L411.51 118.368Z" fill="#EA913D"/>
<path d="M418.81 120.568V126.368C418.81 126.548 418.8 126.678 418.97 126.688H419.46V127.708H418.7C418.05 127.708 417.61 127.398 417.61 126.488V120.558H418.81V120.568Z" fill="#EA913D"/>
<path d="M422.27 124.088C422.59 123.848 423.03 123.638 423.55 123.638V124.818C422.98 124.818 422.54 125.018 422.24 125.188C422.06 125.298 421.9 125.428 421.75 125.558V127.708H420.57V122.768C420.57 121.258 422.08 120.398 423.55 120.398C423.92 120.398 424.31 120.428 424.64 120.548C425.08 120.368 425.43 120.108 425.43 119.608H426.63C426.63 120.318 426.19 120.808 425.69 121.048C426.27 121.418 426.63 122.068 426.63 122.768V127.708H425.43V122.768C425.43 121.908 424.52 121.418 423.55 121.418C422.58 121.418 421.75 121.938 421.75 122.768V124.518C421.9 124.358 422.07 124.208 422.27 124.078" fill="#EA913D"/>
<path d="M431.07 123.418H432.53V120.568H433.73V123.418H434.22V124.328H433.72V125.248C433.72 126.638 432.89 127.858 431.42 127.858H430.28C428.79 127.858 428 126.608 428 125.248V120.568H429.2V125.288C429.2 126.048 429.6 126.858 430.49 126.858H431.17C432.08 126.858 432.51 126.048 432.51 125.318V124.328H431.07V123.418Z" fill="#EA913D"/>
<path d="M435.66 127.718H434.87V126.698H435.36C435.54 126.678 435.52 126.548 435.52 126.378V124.398C435.51 123.988 435.57 123.688 435.65 123.438C435.7 123.308 435.75 123.198 435.81 123.098C435.63 122.948 435.47 122.808 435.32 122.698C435.08 122.498 434.85 122.308 434.85 122.288C435.03 121.948 435.27 121.628 435.55 121.348C436.02 120.878 436.75 120.408 437.8 120.408C439.42 120.408 441.08 121.168 441.08 122.778V126.668C441.08 126.978 440.88 127.218 440.71 127.418C440.6 127.528 440.48 127.648 440.35 127.728H439.89V123.108C439.89 121.768 438.79 121.438 437.8 121.438C437.23 121.438 436.84 121.668 436.54 121.878C436.36 121.988 436.22 122.138 436.1 122.298L437.09 123.108C437.01 123.188 436.94 123.288 436.9 123.398C436.79 123.608 436.72 123.898 436.72 124.408V126.518C436.72 127.348 436.31 127.738 435.67 127.738" fill="#EA913D"/>
<path d="M442.68 120.768C443 120.588 443.47 120.408 444.06 120.408C445.44 120.408 446.96 121.288 446.96 123.098V127.718H445.76V123.258C445.76 121.958 444.85 121.428 443.95 121.428C443.45 121.428 443.01 121.608 442.7 121.788C442.51 121.898 442.34 122.018 442.2 122.148V121.128C442.33 120.998 442.49 120.878 442.69 120.768" fill="#EA913D"/>
<path d="M450.03 124.098C450.35 123.858 450.79 123.628 451.29 123.628V124.808C450.72 124.808 450.28 125.008 449.98 125.178C449.8 125.288 449.64 125.418 449.49 125.548V127.708H448.31V122.768C448.31 121.298 449.79 120.398 451.34 120.398C452.89 120.398 454.37 121.278 454.37 122.768V127.708H453.17V122.768C453.17 121.928 452.31 121.428 451.34 121.428C450.37 121.428 449.51 121.918 449.51 122.768V124.548C449.66 124.368 449.83 124.228 450.03 124.088" fill="#EA913D"/>
<path d="M458.91 127.768C458.78 127.818 458.57 127.868 458.31 127.868C456.53 127.868 455.49 126.248 455.49 124.078C455.49 121.518 456.51 120.418 457.63 120.418C457.87 120.418 458.13 120.628 458.34 120.868C458.45 120.998 458.57 121.148 458.68 121.328C458.78 121.148 458.89 121.008 459 120.868C459.2 120.628 459.46 120.418 459.72 120.418C460.71 120.418 461.71 121.518 461.71 122.658V127.728H460.51V122.658C460.51 121.998 460.04 121.438 459.64 121.438C459.49 121.438 459.25 121.698 459.06 121.958C458.95 122.108 458.82 122.278 458.69 122.458C458.56 122.278 458.43 122.098 458.32 121.958C458.11 121.698 457.88 121.438 457.7 121.438C457.31 121.438 456.68 121.958 456.68 124.078C456.68 125.698 457.18 126.868 458.36 126.868C458.57 126.868 458.77 126.838 458.91 126.758C458.99 126.728 459.06 126.698 459.12 126.648V127.688C459.06 127.718 458.99 127.748 458.91 127.788" fill="#EA913D"/>
<path d="M465.85 123.208H464.54C463.5 123.208 463.08 122.788 463.08 121.798V121.218H464.2V121.818C464.2 122.088 464.31 122.208 464.88 122.208H466.27L465.85 123.218V123.208ZM465.85 126.748H464.57C463.53 126.748 463.08 126.358 463.08 125.368V124.768H464.2V125.348C464.2 125.618 464.31 125.738 464.88 125.738H466.27L465.85 126.738V126.748Z" fill="#EA913D"/>
<path d="M468.31 126.398C468.65 126.638 469.15 126.848 469.8 126.848C470.92 126.848 471.94 125.828 471.94 124.138C471.94 122.448 470.92 121.578 469.8 121.578C469.15 121.578 468.65 121.768 468.31 121.948C468.11 122.058 467.94 122.178 467.79 122.308L467.38 121.298C467.51 121.118 467.69 120.978 467.9 120.848C468.27 120.608 468.86 120.398 469.76 120.398C471.64 120.398 473.11 121.788 473.11 124.138C473.11 126.488 471.65 127.848 469.79 127.848C468.88 127.848 468.28 127.658 467.91 127.408C467.68 127.278 467.5 127.128 467.38 126.948L467.79 125.928C467.94 126.108 468.11 126.248 468.31 126.378" fill="#EA913D"/>
<path d="M473.71 119.358H470.89C469.98 119.358 469.41 119.048 469.41 117.968V117.398H470.54V117.978C470.54 118.258 470.65 118.368 471.22 118.368H474.12L473.7 119.358H473.71Z" fill="#EA913D"/>
<path d="M480.14 120.598V127.708H478.94V126.638C478.78 126.868 478.58 127.078 478.36 127.258C477.97 127.568 477.39 127.858 476.56 127.858C475.09 127.858 474.24 126.528 474.24 125.348V120.598H475.44V124.908C475.44 126.208 476.06 126.688 477.08 126.688C477.65 126.688 478.1 126.478 478.42 126.238C478.62 126.108 478.79 125.968 478.94 125.788V120.598H480.14Z" fill="#EA913D"/>
<path d="M481.76 121.618C482.17 121.018 482.94 120.398 484.35 120.398C486.83 120.398 487.64 122.508 487.64 124.138C487.64 126.648 486.17 127.848 484.35 127.848C482.53 127.848 481.27 126.808 481.27 125.108C481.27 124.278 481.51 123.938 482.16 123.938H483.75V124.958H482.71C482.53 124.948 482.45 125.018 482.47 125.198C482.52 126.078 483.12 126.838 484.37 126.838C485.81 126.838 486.46 125.828 486.46 124.128C486.46 122.428 485.64 121.408 484.35 121.408C483.53 121.408 483.06 121.748 482.78 122.118C482.62 122.328 482.5 122.558 482.42 122.818H481.25C481.33 122.368 481.51 121.958 481.75 121.598" fill="#EA913D"/>
<path d="M489.02 121.618C489.43 121.018 490.2 120.398 491.61 120.398C494.09 120.398 494.9 122.508 494.9 124.138C494.9 126.648 493.43 127.848 491.61 127.848C489.79 127.848 488.53 126.808 488.53 125.108C488.53 124.278 488.77 123.938 489.42 123.938H491.01V124.958H489.97C489.79 124.948 489.71 125.018 489.73 125.198C489.78 126.078 490.38 126.838 491.63 126.838C493.07 126.838 493.72 125.828 493.72 124.128C493.72 122.428 492.89 121.408 491.61 121.408C490.78 121.408 490.32 121.748 490.04 122.118C489.88 122.328 489.77 122.558 489.69 122.818H488.52C488.6 122.368 488.78 121.958 489.02 121.598" fill="#EA913D"/>
<path d="M500.82 123.098C500.82 121.738 499.67 121.428 498.76 121.428C498.18 121.428 497.77 121.658 497.46 121.868C497.28 121.978 497.14 122.128 497.02 122.288L498.01 123.098C497.93 123.178 497.85 123.298 497.8 123.408C497.69 123.618 497.6 123.928 497.6 124.428V127.718H496.43V124.398C496.43 123.988 496.5 123.678 496.58 123.438C496.63 123.308 496.68 123.198 496.73 123.098C496.55 122.948 496.39 122.808 496.24 122.688C496 122.498 495.77 122.298 495.77 122.288C495.95 121.948 496.19 121.618 496.47 121.348C496.94 120.878 497.69 120.408 498.72 120.408C500.31 120.408 501.99 121.168 501.99 122.778V126.668C501.99 126.978 501.79 127.218 501.62 127.418C501.51 127.528 501.39 127.648 501.27 127.728H500.81V123.108L500.82 123.098Z" fill="#EA913D"/>
<path d="M357.98 108.248V72.448H380.21V75.868H361.8V88.488H377.49V91.908H361.8V104.828H380.21V108.248H357.98Z" fill="#EA913D"/>
<path d="M388.65 108.248V72.448H410.88V75.868H392.47V88.488H408.16V91.908H392.47V104.828H410.88V108.248H388.65Z" fill="#EA913D"/>
<path d="M430.49 108.558C426.97 108.558 423.75 107.248 421.34 104.838C417.97 101.468 417.97 97.948 417.97 90.358C417.97 82.768 417.97 79.248 421.34 75.878C423.76 73.458 426.97 72.158 430.49 72.158C436.93 72.158 441.7 76.078 442.91 82.818H438.99C438.03 78.448 434.97 75.578 430.49 75.578C428.13 75.578 425.86 76.488 424.3 78.098C422.03 80.408 421.78 82.878 421.78 90.368C421.78 97.858 422.03 100.318 424.3 102.638C425.86 104.248 428.12 105.158 430.49 105.158C434.97 105.158 438.13 102.288 439.09 97.918H442.91C441.75 104.658 436.87 108.578 430.49 108.578" fill="#EA913D"/>
<path d="M325.63 117.618H339.88V131.588L325.63 117.618Z" fill="#EA913D"/>
<path d="M320.41 119.168V147.528H293.04L320.41 119.168Z" fill="#EA913D"/>
<path d="M332.68 107.738L325.63 114.798H339.88L332.68 107.738Z" fill="#EA913D"/>
<path d="M323.66 119.168V146.958L337.66 132.958L323.66 119.168Z" fill="#EA913D"/>
<path d="M319 117.618L290.85 145.768L262.71 117.618H319Z" fill="#EA913D"/>
<path d="M262 58.0781V114.798H319L262 58.0781Z" fill="#EA913D"/>
<path d="M265.44 56.3281L266.19 57.0781L321.5 1.75806V0.258057L265.44 56.3281Z" fill="#EA913D"/>
<path d="M268.47 59.3781L269.22 60.1281L321.51 7.83813V6.33813L268.47 59.3781Z" fill="#EA913D"/>
<path d="M271.51 62.418L272.26 63.168L321.51 13.928V12.428L271.51 62.418Z" fill="#EA913D"/>
<path d="M274.55 65.4681L275.3 66.2181L321.51 20.0081V18.5081L274.55 65.4681Z" fill="#EA913D"/>
<path d="M277.59 68.5081L278.33 69.2581L321.51 26.0881V24.5881L277.59 68.5081Z" fill="#EA913D"/>
<path d="M280.62 71.558L281.37 72.308L321.51 32.178V30.668L280.62 71.558Z" fill="#EA913D"/>
<path d="M283.66 74.5981L284.41 75.3481L321.51 38.2581V36.7581L283.66 74.5981Z" fill="#EA913D"/>
<path d="M286.7 77.6481L287.45 78.3981L321.51 44.3381V42.8381L286.7 77.6481Z" fill="#EA913D"/>
<path d="M289.74 80.688L290.49 81.438L321.5 50.418V48.918L289.74 80.688Z" fill="#EA913D"/>
<path d="M292.78 83.7381L293.53 84.4881L321.51 56.5081V55.0081L292.78 83.7381Z" fill="#EA913D"/>
<path d="M295.81 86.7781L296.56 87.5281L321.51 62.5881V61.0881L295.81 86.7781Z" fill="#EA913D"/>
<path d="M298.85 89.828L299.6 90.578L321.51 68.668V67.178L298.85 89.828Z" fill="#EA913D"/>
<path d="M301.89 92.8681L302.64 93.6181L321.5 74.7581V73.2581L301.89 92.8681Z" fill="#EA913D"/>
<path d="M304.93 95.9181L305.67 96.6681L321.51 80.8381V79.3381L304.93 95.9181Z" fill="#EA913D"/>
<path d="M307.96 98.958L308.71 99.708L321.51 86.918V85.418L307.96 98.958Z" fill="#EA913D"/>
<path d="M311 102.008L311.75 102.758L321.51 92.998V91.498L311 102.008Z" fill="#EA913D"/>
<path d="M314.04 105.048L314.79 105.798L321.51 99.0881V97.5881L314.04 105.048Z" fill="#EA913D"/>
<path d="M317.08 108.098L317.83 108.848L321.5 105.168V103.668L317.08 108.098Z" fill="#EA913D"/>
<path d="M320.12 111.138L320.87 111.888L321.51 111.248V109.748L320.12 111.138Z" fill="#EA913D"/>
</g>
<defs>
<clipPath id="clip0_1_142">
<rect width="240" height="147.27" fill="white" transform="translate(0 0.258057)"/>
</clipPath>
<clipPath id="clip1_1_142">
<rect width="101" height="147" fill="white" transform="translate(69.5 0.393066)"/>
</clipPath>
<clipPath id="clip2_1_142">
<rect width="240" height="147.27" fill="white" transform="translate(262 0.258057)"/>
</clipPath>
</defs>
</svg>
